<?xml version="1.0" encoding="utf-8"?>
<!-- Generator: Adobe Illustrator 25.2.1, SVG Export Plug-In . SVG Version: 6.00 Build 0)  -->
<svg version="1.1" id="Layer_1" xmlns="http://www.w3.org/2000/svg" xmlns:xlink="http://www.w3.org/1999/xlink" x="0px" y="0px"
	 viewBox="0 0 191.4 115.18" style="enable-background:new 0 0 191.4 115.18;" xml:space="preserve">
<style type="text/css">
	.st0{opacity:0.3;}
	.st1{fill:#FFFFFF;}
	.st2{fill:#FDFDFD;}
	.st3{fill:#FBFBFB;}
	.st4{fill:#F9F9F9;}
	.st5{fill:#F7F7F7;}
	.st6{fill:#F5F5F5;}
	.st7{fill:#F3F3F3;}
	.st8{fill:#F1F1F1;}
	.st9{fill:#EFEFEF;}
	.st10{fill:#EDEDED;}
	.st11{fill:#EBEBEB;}
	.st12{fill:#E9E8E9;}
	.st13{fill:#E7E6E7;}
	.st14{fill:#E5E4E5;}
	.st15{fill:#E3E2E3;}
	.st16{fill:#E2E0E1;}
	.st17{fill:#E0DEDF;}
	.st18{fill:#DEDCDD;}
	.st19{fill:#DCDADB;}
	.st20{fill:#DAD8D9;}
	.st21{fill:#D8D6D7;}
	.st22{fill:#D6D5D5;}
	.st23{fill:#D4D3D3;}
	.st24{fill:#D2D1D1;}
	.st25{fill:#D0CFCF;}
	.st26{fill:#CECDCD;}
	.st27{fill:#CCCBCC;}
	.st28{fill:#CBC9CA;}
	.st29{fill:#C9C7C8;}
	.st30{fill:#C7C5C6;}
	.st31{fill:#C5C4C4;}
	.st32{fill:#C3C2C2;}
	.st33{fill:#C2C0C0;}
	.st34{fill:#C0BEBF;}
	.st35{fill:#BEBCBD;}
	.st36{fill:#BCBABB;}
	.st37{fill:#BAB9B9;}
	.st38{fill:#B8B7B7;}
	.st39{fill:#B6B5B5;}
	.st40{fill:#B4B3B3;}
	.st41{fill:#B3B1B2;}
	.st42{fill:#B1B0B0;}
	.st43{fill:#AFAEAE;}
	.st44{fill:#ADACAC;}
	.st45{fill:#ABAAAA;}
	.st46{fill:#A9A8A9;}
	.st47{fill:#A7A7A7;}
	.st48{fill:#A5A5A5;}
	.st49{fill:#A4A3A3;}
	.st50{fill:#A2A1A2;}
	.st51{fill:#A0A0A0;}
	.st52{fill:#9E9E9E;}
	.st53{fill:#02B0BB;}
</style>
<g class="st0">
	<path class="st1" d="M190.33,47.89v15.7c-18.92,7.09-25.08-13.62-36.97-12.3c-11.31,1.26-14.08,12.71-19.62,22.65
		c-9.46,17.02-23.64,34.4-43.07,35.72c-14.09,0.96-27.04-6.86-39.53-13.47c-12.47-6.62-27.22-12.37-40.37-7.21
		c-3.66,1.44-6.9,3.63-9.7,6.34V47.89c0-15.57,12.62-28.18,28.18-28.18h132.91C177.71,19.71,190.33,32.32,190.33,47.89z"/>
	<path class="st2" d="M190.33,47.59v15.7c-18.92,7.09-25.08-13.62-36.97-12.3c-11.31,1.26-14.08,12.71-19.62,22.65
		c-9.46,17.02-23.64,34.4-43.07,35.72c-14.09,0.96-27.04-6.86-39.53-13.47c-12.47-6.62-27.22-12.37-40.37-7.21
		c-3.66,1.44-6.9,3.63-9.7,6.34V47.59c0-15.57,12.62-28.18,28.18-28.18h132.91C177.71,19.41,190.33,32.03,190.33,47.59z"/>
	<path class="st3" d="M190.33,47.29v15.7c-18.92,7.09-25.08-13.62-36.97-12.3c-11.31,1.26-14.08,12.71-19.62,22.65
		c-9.46,17.02-23.64,34.4-43.07,35.72c-14.09,0.96-27.04-6.86-39.53-13.47c-12.47-6.62-27.22-12.37-40.37-7.21
		c-3.66,1.44-6.9,3.63-9.7,6.34V47.29c0-15.57,12.62-28.18,28.18-28.18h132.91C177.71,19.11,190.33,31.73,190.33,47.29z"/>
	<path class="st4" d="M190.33,47v15.7c-18.92,7.09-25.08-13.62-36.97-12.3c-11.31,1.26-14.08,12.71-19.62,22.65
		c-9.46,17.02-23.64,34.4-43.07,35.72c-14.09,0.96-27.04-6.86-39.53-13.47c-12.47-6.62-27.22-12.37-40.37-7.21
		c-3.66,1.44-6.9,3.63-9.7,6.34V47c0-15.57,12.62-28.18,28.18-28.18h132.91C177.71,18.81,190.33,31.43,190.33,47z"/>
	<path class="st5" d="M190.33,46.7v15.7c-18.92,7.09-25.08-13.62-36.97-12.3c-11.31,1.26-14.08,12.71-19.62,22.65
		c-9.46,17.02-23.64,34.4-43.07,35.72C76.58,109.42,63.62,101.6,51.14,95c-12.47-6.62-27.22-12.37-40.37-7.21
		c-3.66,1.44-6.9,3.63-9.7,6.34V46.7c0-15.57,12.62-28.18,28.18-28.18h132.91C177.71,18.52,190.33,31.13,190.33,46.7z"/>
	<path class="st6" d="M190.33,46.4v15.7c-18.92,7.09-25.08-13.62-36.97-12.3c-11.31,1.26-14.08,12.71-19.62,22.65
		c-9.46,17.02-23.64,34.4-43.07,35.72c-14.09,0.96-27.04-6.86-39.53-13.47c-12.47-6.62-27.22-12.37-40.37-7.21
		c-3.66,1.44-6.9,3.63-9.7,6.34V46.4c0-15.57,12.62-28.18,28.18-28.18h132.91C177.71,18.22,190.33,30.83,190.33,46.4z"/>
	<path class="st7" d="M190.33,46.1v15.7c-18.92,7.09-25.08-13.62-36.97-12.3c-11.31,1.26-14.08,12.71-19.62,22.65
		c-9.46,17.02-23.64,34.4-43.07,35.72c-14.09,0.96-27.04-6.86-39.53-13.47c-12.47-6.62-27.22-12.37-40.37-7.21
		c-3.66,1.44-6.9,3.63-9.7,6.34V46.1c0-15.57,12.62-28.18,28.18-28.18h132.91C177.71,17.92,190.33,30.54,190.33,46.1z"/>
	<path class="st8" d="M190.33,45.81v15.7c-18.92,7.09-25.08-13.62-36.97-12.3c-11.31,1.26-14.08,12.71-19.62,22.65
		c-9.46,17.02-23.64,34.4-43.07,35.72c-14.09,0.96-27.04-6.86-39.53-13.47c-12.47-6.62-27.22-12.37-40.37-7.21
		c-3.66,1.44-6.9,3.63-9.7,6.34V45.81c0-15.57,12.62-28.18,28.18-28.18h132.91C177.71,17.62,190.33,30.24,190.33,45.81z"/>
	<path class="st9" d="M190.33,45.51v15.7c-18.92,7.09-25.08-13.62-36.97-12.3c-11.31,1.26-14.08,12.71-19.62,22.65
		c-9.46,17.02-23.64,34.4-43.07,35.72c-14.09,0.96-27.04-6.86-39.53-13.47c-12.47-6.62-27.22-12.37-40.37-7.21
		c-3.66,1.44-6.9,3.63-9.7,6.34V45.51c0-15.57,12.62-28.18,28.18-28.18h132.91C177.71,17.32,190.33,29.94,190.33,45.51z"/>
	<path class="st10" d="M190.33,45.21v15.7c-18.92,7.09-25.08-13.62-36.97-12.3c-11.31,1.26-14.08,12.71-19.62,22.65
		c-9.46,17.02-23.64,34.4-43.07,35.72c-14.09,0.96-27.04-6.86-39.53-13.47c-12.47-6.62-27.22-12.37-40.37-7.21
		c-3.66,1.44-6.9,3.63-9.7,6.34V45.21c0-15.57,12.62-28.18,28.18-28.18h132.91C177.71,17.03,190.33,29.64,190.33,45.21z"/>
	<path class="st11" d="M190.33,44.91v15.7c-18.92,7.09-25.08-13.62-36.97-12.3c-11.31,1.26-14.08,12.71-19.62,22.65
		c-9.46,17.02-23.64,34.4-43.07,35.72c-14.09,0.96-27.04-6.86-39.53-13.47C38.67,86.59,23.91,80.84,10.77,86
		c-3.66,1.44-6.9,3.63-9.7,6.34V44.91c0-15.57,12.62-28.18,28.18-28.18h132.91C177.71,16.73,190.33,29.34,190.33,44.91z"/>
	<path class="st12" d="M190.33,44.61v15.7c-18.92,7.09-25.08-13.62-36.97-12.3c-11.31,1.26-14.08,12.71-19.62,22.65
		c-9.46,17.02-23.64,34.4-43.07,35.72c-14.09,0.96-27.04-6.86-39.53-13.47c-12.47-6.62-27.22-12.37-40.37-7.21
		c-3.66,1.44-6.9,3.63-9.7,6.34V44.61c0-15.57,12.62-28.18,28.18-28.18h132.91C177.71,16.43,190.33,29.05,190.33,44.61z"/>
	<path class="st13" d="M190.33,44.32v15.7c-18.92,7.09-25.08-13.62-36.97-12.3c-11.31,1.26-14.08,12.71-19.62,22.65
		c-9.46,17.02-23.64,34.4-43.07,35.72c-14.09,0.96-27.04-6.86-39.53-13.47c-12.47-6.62-27.22-12.37-40.37-7.21
		c-3.66,1.44-6.9,3.63-9.7,6.34V44.32c0-15.57,12.62-28.18,28.18-28.18h132.91C177.71,16.13,190.33,28.75,190.33,44.32z"/>
	<path class="st14" d="M190.33,44.02v15.7c-18.92,7.09-25.08-13.62-36.97-12.3c-11.31,1.26-14.08,12.71-19.62,22.65
		c-9.46,17.02-23.64,34.4-43.07,35.72c-14.09,0.96-27.04-6.86-39.53-13.47c-12.47-6.62-27.22-12.37-40.37-7.21
		c-3.66,1.44-6.9,3.63-9.7,6.34V44.02c0-15.57,12.62-28.18,28.18-28.18h132.91C177.71,15.83,190.33,28.45,190.33,44.02z"/>
	<path class="st15" d="M190.33,43.72v15.7c-18.92,7.09-25.08-13.62-36.97-12.3c-11.31,1.26-14.08,12.71-19.62,22.65
		c-9.46,17.02-23.64,34.4-43.07,35.72c-14.09,0.96-27.04-6.86-39.53-13.47c-12.47-6.62-27.22-12.37-40.37-7.21
		c-3.66,1.44-6.9,3.63-9.7,6.34V43.72c0-15.57,12.62-28.18,28.18-28.18h132.91C177.71,15.54,190.33,28.15,190.33,43.72z"/>
	<path class="st16" d="M190.33,43.42v15.7c-18.92,7.09-25.08-13.62-36.97-12.3c-11.31,1.26-14.08,12.71-19.62,22.65
		c-9.46,17.02-23.64,34.4-43.07,35.72c-14.09,0.96-27.04-6.86-39.53-13.47c-12.47-6.62-27.22-12.37-40.37-7.21
		c-3.66,1.44-6.9,3.63-9.7,6.34V43.42c0-15.57,12.62-28.18,28.18-28.18h132.91C177.71,15.24,190.33,27.86,190.33,43.42z"/>
	<path class="st17" d="M190.33,43.12v15.7c-18.92,7.09-25.08-13.62-36.97-12.3c-11.31,1.26-14.08,12.71-19.62,22.65
		c-9.46,17.02-23.64,34.4-43.07,35.72c-14.09,0.96-27.04-6.86-39.53-13.47c-12.47-6.62-27.22-12.37-40.37-7.21
		c-3.66,1.44-6.9,3.63-9.7,6.34V43.12c0-15.57,12.62-28.18,28.18-28.18h132.91C177.71,14.94,190.33,27.56,190.33,43.12z"/>
	<path class="st18" d="M190.33,42.83v15.7c-18.92,7.09-25.08-13.62-36.97-12.3c-11.31,1.26-14.08,12.71-19.62,22.65
		c-9.46,17.02-23.64,34.4-43.07,35.72c-14.09,0.96-27.04-6.86-39.53-13.47c-12.47-6.62-27.22-12.37-40.37-7.21
		c-3.66,1.44-6.9,3.63-9.7,6.34V42.83c0-15.57,12.62-28.18,28.18-28.18h132.91C177.71,14.64,190.33,27.26,190.33,42.83z"/>
	<path class="st19" d="M190.33,42.53v15.7c-18.92,7.09-25.08-13.62-36.97-12.3c-11.31,1.26-14.08,12.71-19.62,22.65
		c-9.46,17.02-23.64,34.4-43.07,35.72c-14.09,0.96-27.04-6.86-39.53-13.47c-12.47-6.62-27.22-12.37-40.37-7.21
		c-3.66,1.44-6.9,3.63-9.7,6.34V42.53c0-15.57,12.62-28.18,28.18-28.18h132.91C177.71,14.34,190.33,26.96,190.33,42.53z"/>
	<path class="st20" d="M190.33,42.23v15.7c-18.92,7.09-25.08-13.62-36.97-12.3c-11.31,1.26-14.08,12.71-19.62,22.65
		c-9.46,17.02-23.64,34.4-43.07,35.72c-14.09,0.96-27.04-6.86-39.53-13.47c-12.47-6.62-27.22-12.37-40.37-7.21
		c-3.66,1.44-6.9,3.63-9.7,6.34V42.23c0-15.57,12.62-28.18,28.18-28.18h132.91C177.71,14.05,190.33,26.66,190.33,42.23z"/>
	<path class="st21" d="M190.33,41.93v15.7c-18.92,7.09-25.08-13.62-36.97-12.3c-11.31,1.26-14.08,12.71-19.62,22.65
		c-9.46,17.02-23.64,34.4-43.07,35.72c-14.09,0.96-27.04-6.86-39.53-13.47c-12.47-6.62-27.22-12.37-40.37-7.21
		c-3.66,1.44-6.9,3.63-9.7,6.34V41.93c0-15.57,12.62-28.18,28.18-28.18h132.91C177.71,13.75,190.33,26.37,190.33,41.93z"/>
	<path class="st22" d="M190.33,41.64v15.7c-18.92,7.09-25.08-13.62-36.97-12.3c-11.31,1.26-14.08,12.71-19.62,22.65
		c-9.46,17.02-23.64,34.4-43.07,35.72c-14.09,0.96-27.04-6.86-39.53-13.47c-12.47-6.62-27.22-12.37-40.37-7.21
		c-3.66,1.44-6.9,3.63-9.7,6.34V41.64c0-15.57,12.62-28.18,28.18-28.18h132.91C177.71,13.45,190.33,26.07,190.33,41.64z"/>
	<path class="st23" d="M190.33,41.34v15.7c-18.92,7.09-25.08-13.62-36.97-12.3c-11.31,1.26-14.08,12.71-19.62,22.65
		c-9.46,17.02-23.64,34.4-43.07,35.72c-14.09,0.96-27.04-6.86-39.53-13.47c-12.47-6.62-27.22-12.37-40.37-7.21
		c-3.66,1.44-6.9,3.63-9.7,6.34V41.34c0-15.57,12.62-28.18,28.18-28.18h132.91C177.71,13.15,190.33,25.77,190.33,41.34z"/>
	<path class="st24" d="M190.33,41.04v15.7c-18.92,7.09-25.08-13.62-36.97-12.3c-11.31,1.26-14.08,12.71-19.62,22.65
		c-9.46,17.02-23.64,34.4-43.07,35.72c-14.09,0.96-27.04-6.86-39.53-13.47c-12.47-6.62-27.22-12.37-40.37-7.21
		c-3.66,1.44-6.9,3.63-9.7,6.34V41.04c0-15.57,12.62-28.18,28.18-28.18h132.91C177.71,12.86,190.33,25.47,190.33,41.04z"/>
	<path class="st25" d="M190.33,40.74v15.7c-18.92,7.09-25.08-13.62-36.97-12.3c-11.31,1.26-14.08,12.71-19.62,22.65
		c-9.46,17.02-23.64,34.4-43.07,35.72c-14.09,0.96-27.04-6.86-39.53-13.47c-12.47-6.62-27.22-12.37-40.37-7.21
		c-3.66,1.44-6.9,3.63-9.7,6.34V40.74c0-15.57,12.62-28.18,28.18-28.18h132.91C177.71,12.56,190.33,25.17,190.33,40.74z"/>
	<path class="st26" d="M190.33,40.44v15.7c-18.92,7.09-25.08-13.62-36.97-12.3c-11.31,1.26-14.08,12.71-19.62,22.65
		c-9.46,17.02-23.64,34.4-43.07,35.72c-14.09,0.96-27.04-6.86-39.53-13.47c-12.47-6.62-27.22-12.37-40.37-7.21
		c-3.66,1.44-6.9,3.63-9.7,6.34V40.44c0-15.57,12.62-28.18,28.18-28.18h132.91C177.71,12.26,190.33,24.88,190.33,40.44z"/>
	<path class="st27" d="M190.33,40.15v15.7c-18.92,7.09-25.08-13.62-36.97-12.3c-11.31,1.26-14.08,12.71-19.62,22.65
		c-9.46,17.02-23.64,34.4-43.07,35.72c-14.09,0.96-27.04-6.86-39.53-13.47c-12.47-6.62-27.22-12.37-40.37-7.21
		c-3.66,1.44-6.9,3.63-9.7,6.34V40.15c0-15.57,12.62-28.18,28.18-28.18h132.91C177.71,11.96,190.33,24.58,190.33,40.15z"/>
	<path class="st28" d="M190.33,39.85v15.7c-18.92,7.09-25.08-13.62-36.97-12.3c-11.31,1.26-14.08,12.71-19.62,22.65
		c-9.46,17.02-23.64,34.4-43.07,35.72c-14.09,0.96-27.04-6.86-39.53-13.47c-12.47-6.62-27.22-12.37-40.37-7.21
		c-3.66,1.44-6.9,3.63-9.7,6.34V39.85c0-15.57,12.62-28.18,28.18-28.18h132.91C177.71,11.66,190.33,24.28,190.33,39.85z"/>
	<path class="st29" d="M190.33,39.55v15.7c-18.92,7.09-25.08-13.62-36.97-12.3c-11.31,1.26-14.08,12.71-19.62,22.65
		c-9.46,17.02-23.64,34.4-43.07,35.72c-14.09,0.96-27.04-6.86-39.53-13.47c-12.47-6.62-27.22-12.37-40.37-7.21
		c-3.66,1.44-6.9,3.63-9.7,6.34V39.55c0-15.57,12.62-28.18,28.18-28.18h132.91C177.71,11.37,190.33,23.98,190.33,39.55z"/>
	<path class="st30" d="M190.33,39.25v15.7c-18.92,7.09-25.08-13.62-36.97-12.3c-11.31,1.26-14.08,12.71-19.62,22.65
		c-9.46,17.02-23.64,34.4-43.07,35.72c-14.09,0.96-27.04-6.86-39.53-13.47c-12.47-6.62-27.22-12.37-40.37-7.21
		c-3.66,1.44-6.9,3.63-9.7,6.34V39.25c0-15.57,12.62-28.18,28.18-28.18h132.91C177.71,11.07,190.33,23.69,190.33,39.25z"/>
	<path class="st31" d="M190.33,38.95v15.7c-18.92,7.09-25.08-13.62-36.97-12.3c-11.31,1.26-14.08,12.71-19.62,22.65
		c-9.46,17.02-23.64,34.4-43.07,35.72c-14.09,0.96-27.04-6.86-39.53-13.47c-12.47-6.62-27.22-12.37-40.37-7.21
		c-3.66,1.44-6.9,3.63-9.7,6.34V38.95c0-15.57,12.62-28.18,28.18-28.18h132.91C177.71,10.77,190.33,23.39,190.33,38.95z"/>
	<path class="st32" d="M190.33,38.66v15.7c-18.92,7.09-25.08-13.62-36.97-12.3c-11.31,1.26-14.08,12.71-19.62,22.65
		c-9.46,17.02-23.64,34.4-43.07,35.72c-14.09,0.96-27.04-6.86-39.53-13.47c-12.47-6.62-27.22-12.37-40.37-7.21
		c-3.66,1.44-6.9,3.63-9.7,6.34V38.66c0-15.57,12.62-28.18,28.18-28.18h132.91C177.71,10.47,190.33,23.09,190.33,38.66z"/>
	<path class="st33" d="M190.33,38.36v15.7c-18.92,7.09-25.08-13.62-36.97-12.3c-11.31,1.26-14.08,12.71-19.62,22.65
		c-9.46,17.02-23.64,34.4-43.07,35.72c-14.09,0.96-27.04-6.86-39.53-13.47c-12.47-6.62-27.22-12.37-40.37-7.21
		c-3.66,1.44-6.9,3.63-9.7,6.34V38.36c0-15.57,12.62-28.18,28.18-28.18h132.91C177.71,10.17,190.33,22.79,190.33,38.36z"/>
	<path class="st34" d="M190.33,38.06v15.7c-18.92,7.09-25.08-13.62-36.97-12.3c-11.31,1.26-14.08,12.71-19.62,22.65
		c-9.46,17.02-23.64,34.4-43.07,35.72c-14.09,0.96-27.04-6.86-39.53-13.47c-12.47-6.62-27.22-12.37-40.37-7.21
		c-3.66,1.44-6.9,3.63-9.7,6.34V38.06c0-15.57,12.62-28.18,28.18-28.18h132.91C177.71,9.88,190.33,22.49,190.33,38.06z"/>
	<path class="st35" d="M190.33,37.76v15.7c-18.92,7.09-25.08-13.62-36.97-12.3c-11.31,1.26-14.08,12.71-19.62,22.65
		c-9.46,17.02-23.64,34.4-43.07,35.72c-14.09,0.96-27.04-6.86-39.53-13.47c-12.47-6.62-27.22-12.37-40.37-7.21
		c-3.66,1.44-6.9,3.63-9.7,6.34V37.76c0-15.57,12.62-28.18,28.18-28.18h132.91C177.71,9.58,190.33,22.2,190.33,37.76z"/>
	<path class="st36" d="M190.33,37.47v15.7c-18.92,7.09-25.08-13.62-36.97-12.3c-11.31,1.26-14.08,12.71-19.62,22.65
		c-9.46,17.02-23.64,34.4-43.07,35.72c-14.09,0.96-27.04-6.86-39.53-13.47c-12.47-6.62-27.22-12.37-40.37-7.21
		c-3.66,1.44-6.9,3.63-9.7,6.34V37.47c0-15.57,12.62-28.18,28.18-28.18h132.91C177.71,9.28,190.33,21.9,190.33,37.47z"/>
	<path class="st37" d="M190.33,37.17v15.7c-18.92,7.09-25.08-13.62-36.97-12.3c-11.31,1.26-14.08,12.71-19.62,22.65
		c-9.46,17.02-23.64,34.4-43.07,35.72c-14.09,0.96-27.04-6.86-39.53-13.47c-12.47-6.62-27.22-12.37-40.37-7.21
		c-3.66,1.44-6.9,3.63-9.7,6.34V37.17c0-15.57,12.62-28.18,28.18-28.18h132.91C177.71,8.98,190.33,21.6,190.33,37.17z"/>
	<path class="st38" d="M190.33,36.87v15.7c-18.92,7.09-25.08-13.62-36.97-12.3c-11.31,1.26-14.08,12.71-19.62,22.65
		c-9.46,17.02-23.64,34.4-43.07,35.72c-14.09,0.96-27.04-6.86-39.53-13.47c-12.47-6.62-27.22-12.37-40.37-7.21
		c-3.66,1.44-6.9,3.63-9.7,6.34V36.87c0-15.57,12.62-28.18,28.18-28.18h132.91C177.71,8.69,190.33,21.3,190.33,36.87z"/>
	<path class="st39" d="M190.33,36.57v15.7c-18.92,7.09-25.08-13.62-36.97-12.3c-11.31,1.26-14.08,12.71-19.62,22.65
		c-9.46,17.02-23.64,34.4-43.07,35.72c-14.09,0.96-27.04-6.86-39.53-13.47c-12.47-6.62-27.22-12.37-40.37-7.21
		c-3.66,1.44-6.9,3.63-9.7,6.34V36.57C1.07,21,13.68,8.39,29.25,8.39h132.91C177.71,8.39,190.33,21,190.33,36.57z"/>
	<path class="st40" d="M190.33,36.27v15.7c-18.92,7.09-25.08-13.62-36.97-12.3c-11.31,1.26-14.08,12.71-19.62,22.65
		c-9.46,17.02-23.64,34.4-43.07,35.72C76.58,99,63.62,91.18,51.14,84.57c-12.47-6.62-27.22-12.37-40.37-7.21
		c-3.66,1.44-6.9,3.63-9.7,6.34V36.27c0-15.57,12.62-28.18,28.18-28.18h132.91C177.71,8.09,190.33,20.71,190.33,36.27z"/>
	<path class="st41" d="M190.33,35.98v15.7c-18.92,7.09-25.08-13.62-36.97-12.3c-11.31,1.26-14.08,12.71-19.62,22.65
		c-9.46,17.02-23.64,34.4-43.07,35.72c-14.09,0.96-27.04-6.86-39.53-13.47c-12.47-6.62-27.22-12.37-40.37-7.21
		c-3.66,1.44-6.9,3.63-9.7,6.34V35.98c0-15.57,12.62-28.18,28.18-28.18h132.91C177.71,7.79,190.33,20.41,190.33,35.98z"/>
	<path class="st42" d="M190.33,35.68v15.7c-18.92,7.09-25.08-13.62-36.97-12.3c-11.31,1.26-14.08,12.71-19.62,22.65
		c-9.46,17.02-23.64,34.4-43.07,35.72c-14.09,0.96-27.04-6.86-39.53-13.47c-12.47-6.62-27.22-12.37-40.37-7.21
		c-3.66,1.44-6.9,3.63-9.7,6.34V35.68c0-15.57,12.62-28.18,28.18-28.18h132.91C177.71,7.49,190.33,20.11,190.33,35.68z"/>
	<path class="st43" d="M190.33,35.38v15.7c-18.92,7.09-25.08-13.62-36.97-12.3c-11.31,1.26-14.08,12.71-19.62,22.65
		c-9.46,17.02-23.64,34.4-43.07,35.72c-14.09,0.96-27.04-6.86-39.53-13.47c-12.47-6.62-27.22-12.37-40.37-7.21
		c-3.66,1.44-6.9,3.63-9.7,6.34V35.38C1.07,19.81,13.68,7.2,29.25,7.2h132.91C177.71,7.2,190.33,19.81,190.33,35.38z"/>
	<path class="st44" d="M190.33,35.08v15.7c-18.92,7.09-25.08-13.62-36.97-12.3c-11.31,1.26-14.08,12.71-19.62,22.65
		c-9.46,17.02-23.64,34.4-43.07,35.72c-14.09,0.96-27.04-6.86-39.53-13.47c-12.47-6.62-27.22-12.37-40.37-7.21
		c-3.66,1.44-6.9,3.63-9.7,6.34V35.08C1.07,19.52,13.68,6.9,29.25,6.9h132.91C177.71,6.9,190.33,19.52,190.33,35.08z"/>
	<path class="st45" d="M190.33,34.78v15.7c-18.92,7.09-25.08-13.62-36.97-12.3c-11.31,1.26-14.08,12.71-19.62,22.65
		c-9.46,17.02-23.64,34.4-43.07,35.72c-14.09,0.96-27.04-6.86-39.53-13.47c-12.47-6.62-27.22-12.37-40.37-7.21
		c-3.66,1.44-6.9,3.63-9.7,6.34V34.78C1.07,19.22,13.68,6.6,29.25,6.6h132.91C177.71,6.6,190.33,19.22,190.33,34.78z"/>
	<path class="st46" d="M190.33,34.49v15.7c-18.92,7.09-25.08-13.62-36.97-12.3c-11.31,1.26-14.08,12.71-19.62,22.65
		c-9.46,17.02-23.64,34.4-43.07,35.72c-14.09,0.96-27.04-6.86-39.53-13.47c-12.47-6.62-27.22-12.37-40.37-7.21
		c-3.66,1.44-6.9,3.63-9.7,6.34V34.49C1.07,18.92,13.68,6.3,29.25,6.3h132.91C177.71,6.3,190.33,18.92,190.33,34.49z"/>
	<path class="st47" d="M190.33,34.19v15.7c-18.92,7.09-25.08-13.62-36.97-12.3c-11.31,1.26-14.08,12.71-19.62,22.65
		c-9.46,17.02-23.64,34.4-43.07,35.72c-14.09,0.96-27.04-6.86-39.53-13.47c-12.47-6.62-27.22-12.37-40.37-7.21
		c-3.66,1.44-6.9,3.63-9.7,6.34V34.19C1.07,18.62,13.68,6,29.25,6h132.91C177.71,6,190.33,18.62,190.33,34.19z"/>
	<path class="st48" d="M190.33,33.89v15.7c-18.92,7.09-25.08-13.62-36.97-12.3c-11.31,1.26-14.08,12.71-19.62,22.65
		c-9.46,17.02-23.64,34.4-43.07,35.72c-14.09,0.96-27.04-6.86-39.53-13.47c-12.47-6.62-27.22-12.37-40.37-7.21
		c-3.66,1.44-6.9,3.63-9.7,6.34V33.89c0-15.57,12.62-28.18,28.18-28.18h132.91C177.71,5.71,190.33,18.32,190.33,33.89z"/>
	<path class="st49" d="M190.33,33.59v15.7c-18.92,7.09-25.08-13.62-36.97-12.3c-11.31,1.26-14.08,12.71-19.62,22.65
		c-9.46,17.02-23.64,34.4-43.07,35.72c-14.09,0.96-27.04-6.86-39.53-13.47c-12.47-6.62-27.22-12.37-40.37-7.21
		c-3.66,1.44-6.9,3.63-9.7,6.34V33.59c0-15.57,12.62-28.18,28.18-28.18h132.91C177.71,5.41,190.33,18.03,190.33,33.59z"/>
	<path class="st50" d="M190.33,33.29v15.7c-18.92,7.09-25.08-13.62-36.97-12.3c-11.31,1.26-14.08,12.71-19.62,22.65
		c-9.46,17.02-23.64,34.4-43.07,35.72c-14.09,0.96-27.04-6.86-39.53-13.47c-12.47-6.62-27.22-12.37-40.37-7.21
		c-3.66,1.44-6.9,3.63-9.7,6.34V33.29c0-15.57,12.62-28.18,28.18-28.18h132.91C177.71,5.11,190.33,17.73,190.33,33.29z"/>
	<path class="st51" d="M190.33,33v15.7c-18.92,7.09-25.08-13.62-36.97-12.3c-11.31,1.26-14.08,12.71-19.62,22.65
		c-9.46,17.02-23.64,34.4-43.07,35.72c-14.09,0.96-27.04-6.86-39.53-13.47c-12.47-6.62-27.22-12.37-40.37-7.21
		c-3.66,1.44-6.9,3.63-9.7,6.34V33c0-15.57,12.62-28.18,28.18-28.18h132.91C177.71,4.81,190.33,17.43,190.33,33z"/>
	<path class="st52" d="M190.33,32.7v15.7c-18.92,7.09-25.08-13.62-36.97-12.3c-11.31,1.26-14.08,12.71-19.62,22.65
		c-9.46,17.02-23.64,34.4-43.07,35.72C76.58,95.42,63.62,87.6,51.14,81c-12.47-6.62-27.22-12.37-40.37-7.21
		c-3.66,1.44-6.9,3.63-9.7,6.34V32.7c0-15.57,12.62-28.18,28.18-28.18h132.91C177.71,4.52,190.33,17.13,190.33,32.7z"/>
</g>
<path class="st53" d="M190.33,32.7v15.7c-18.92,7.09-25.08-13.62-36.97-12.3c-11.31,1.26-14.08,12.71-19.62,22.65
	c-9.46,17.02-23.64,34.4-43.07,35.72C76.58,95.42,63.62,87.6,51.14,81c-12.47-6.62-27.22-12.37-40.37-7.21
	c-3.66,1.44-6.9,3.63-9.7,6.34V32.7c0-15.57,12.62-28.18,28.18-28.18h132.91C177.71,4.52,190.33,17.13,190.33,32.7z"/>
</svg>
