<?xml version="1.0" encoding="utf-8"?>
<!-- Generator: Adobe Illustrator 25.2.1, SVG Export Plug-In . SVG Version: 6.00 Build 0)  -->
<svg version="1.1" id="Layer_1" xmlns="http://www.w3.org/2000/svg" xmlns:xlink="http://www.w3.org/1999/xlink" x="0px" y="0px"
	 viewBox="0 0 191.4 115.18" style="enable-background:new 0 0 191.4 115.18;" xml:space="preserve">
<style type="text/css">
	.st0{opacity:0.3;}
	.st1{fill:#FFFFFF;}
	.st2{fill:#FDFDFD;}
	.st3{fill:#FBFBFB;}
	.st4{fill:#F9F9F9;}
	.st5{fill:#F7F7F7;}
	.st6{fill:#F5F5F5;}
	.st7{fill:#F3F3F3;}
	.st8{fill:#F1F1F1;}
	.st9{fill:#EFEFEF;}
	.st10{fill:#EDEDED;}
	.st11{fill:#EBEBEB;}
	.st12{fill:#E9E8E9;}
	.st13{fill:#E7E6E7;}
	.st14{fill:#E5E4E5;}
	.st15{fill:#E3E2E3;}
	.st16{fill:#E2E0E1;}
	.st17{fill:#E0DEDF;}
	.st18{fill:#DEDCDD;}
	.st19{fill:#DCDADB;}
	.st20{fill:#DAD8D9;}
	.st21{fill:#D8D6D7;}
	.st22{fill:#D6D5D5;}
	.st23{fill:#D4D3D3;}
	.st24{fill:#D2D1D1;}
	.st25{fill:#D0CFCF;}
	.st26{fill:#CECDCD;}
	.st27{fill:#CCCBCC;}
	.st28{fill:#CBC9CA;}
	.st29{fill:#C9C7C8;}
	.st30{fill:#C7C5C6;}
	.st31{fill:#C5C4C4;}
	.st32{fill:#C3C2C2;}
	.st33{fill:#C2C0C0;}
	.st34{fill:#C0BEBF;}
	.st35{fill:#BEBCBD;}
	.st36{fill:#BCBABB;}
	.st37{fill:#BAB9B9;}
	.st38{fill:#B8B7B7;}
	.st39{fill:#B6B5B5;}
	.st40{fill:#B4B3B3;}
	.st41{fill:#B3B1B2;}
	.st42{fill:#B1B0B0;}
	.st43{fill:#AFAEAE;}
	.st44{fill:#ADACAC;}
	.st45{fill:#ABAAAA;}
	.st46{fill:#A9A8A9;}
	.st47{fill:#A7A7A7;}
	.st48{fill:#A5A5A5;}
	.st49{fill:#A4A3A3;}
	.st50{fill:#A2A1A2;}
	.st51{fill:#A0A0A0;}
	.st52{fill:#9E9E9E;}
	.st53{fill:#F49920;}
</style>
<g class="st0">
	<path class="st1" d="M190.33,48.36v15.7c-18.92,7.09-25.08-13.62-36.97-12.3c-11.31,1.26-14.08,12.71-19.62,22.65
		c-9.46,17.02-23.64,34.4-43.07,35.72c-14.09,0.96-27.04-6.86-39.53-13.47c-12.47-6.62-27.22-12.37-40.37-7.21
		c-3.66,1.44-6.9,3.63-9.7,6.34V48.36c0-15.57,12.62-28.18,28.18-28.18h132.91C177.71,20.17,190.33,32.79,190.33,48.36z"/>
	<path class="st2" d="M190.33,48.06v15.7c-18.92,7.09-25.08-13.62-36.97-12.3c-11.31,1.26-14.08,12.71-19.62,22.65
		c-9.46,17.02-23.64,34.4-43.07,35.72c-14.09,0.96-27.04-6.86-39.53-13.47c-12.47-6.62-27.22-12.37-40.37-7.21
		c-3.66,1.44-6.9,3.63-9.7,6.34V48.06c0-15.57,12.62-28.18,28.18-28.18h132.91C177.71,19.88,190.33,32.49,190.33,48.06z"/>
	<path class="st3" d="M190.33,47.76v15.7c-18.92,7.09-25.08-13.62-36.97-12.3c-11.31,1.26-14.08,12.71-19.62,22.65
		c-9.46,17.02-23.64,34.4-43.07,35.72c-14.09,0.96-27.04-6.86-39.53-13.47c-12.47-6.62-27.22-12.37-40.37-7.21
		c-3.66,1.44-6.9,3.63-9.7,6.34V47.76c0-15.57,12.62-28.18,28.18-28.18h132.91C177.71,19.58,190.33,32.19,190.33,47.76z"/>
	<path class="st4" d="M190.33,47.46v15.7c-18.92,7.09-25.08-13.62-36.97-12.3c-11.31,1.26-14.08,12.71-19.62,22.65
		c-9.46,17.02-23.64,34.4-43.07,35.72c-14.09,0.96-27.04-6.86-39.53-13.47c-12.47-6.62-27.22-12.37-40.37-7.21
		c-3.66,1.44-6.9,3.63-9.7,6.34V47.46c0-15.57,12.62-28.18,28.18-28.18h132.91C177.71,19.28,190.33,31.9,190.33,47.46z"/>
	<path class="st5" d="M190.33,47.17v15.7c-18.92,7.09-25.08-13.62-36.97-12.3c-11.31,1.26-14.08,12.71-19.62,22.65
		c-9.46,17.02-23.64,34.4-43.07,35.72c-14.09,0.96-27.04-6.86-39.53-13.47c-12.47-6.62-27.22-12.37-40.37-7.21
		c-3.66,1.44-6.9,3.63-9.7,6.34V47.17c0-15.57,12.62-28.18,28.18-28.18h132.91C177.71,18.98,190.33,31.6,190.33,47.17z"/>
	<path class="st6" d="M190.33,46.87v15.7c-18.92,7.09-25.08-13.62-36.97-12.3c-11.31,1.26-14.08,12.71-19.62,22.65
		c-9.46,17.02-23.64,34.4-43.07,35.72c-14.09,0.96-27.04-6.86-39.53-13.47c-12.47-6.62-27.22-12.37-40.37-7.21
		c-3.66,1.44-6.9,3.63-9.7,6.34V46.87c0-15.57,12.62-28.18,28.18-28.18h132.91C177.71,18.68,190.33,31.3,190.33,46.87z"/>
	<path class="st7" d="M190.33,46.57v15.7c-18.92,7.09-25.08-13.62-36.97-12.3c-11.31,1.26-14.08,12.71-19.62,22.65
		c-9.46,17.02-23.64,34.4-43.07,35.72c-14.09,0.96-27.04-6.86-39.53-13.47c-12.47-6.62-27.22-12.37-40.37-7.21
		c-3.66,1.44-6.9,3.63-9.7,6.34V46.57c0-15.57,12.62-28.18,28.18-28.18h132.91C177.71,18.39,190.33,31,190.33,46.57z"/>
	<path class="st8" d="M190.33,46.27v15.7c-18.92,7.09-25.08-13.62-36.97-12.3c-11.31,1.26-14.08,12.71-19.62,22.65
		c-9.46,17.02-23.64,34.4-43.07,35.72c-14.09,0.96-27.04-6.86-39.53-13.47c-12.47-6.62-27.22-12.37-40.37-7.21
		c-3.66,1.44-6.9,3.63-9.7,6.34V46.27c0-15.57,12.62-28.18,28.18-28.18h132.91C177.71,18.09,190.33,30.71,190.33,46.27z"/>
	<path class="st9" d="M190.33,45.97v15.7c-18.92,7.09-25.08-13.62-36.97-12.3c-11.31,1.26-14.08,12.71-19.62,22.65
		c-9.46,17.02-23.64,34.4-43.07,35.72c-14.09,0.96-27.04-6.86-39.53-13.47c-12.47-6.62-27.22-12.37-40.37-7.21
		c-3.66,1.44-6.9,3.63-9.7,6.34V45.97c0-15.57,12.62-28.18,28.18-28.18h132.91C177.71,17.79,190.33,30.41,190.33,45.97z"/>
	<path class="st10" d="M190.33,45.68v15.7c-18.92,7.09-25.08-13.62-36.97-12.3c-11.31,1.26-14.08,12.71-19.62,22.65
		c-9.46,17.02-23.64,34.4-43.07,35.72c-14.09,0.96-27.04-6.86-39.53-13.47c-12.47-6.62-27.22-12.37-40.37-7.21
		c-3.66,1.44-6.9,3.63-9.7,6.34V45.68c0-15.57,12.62-28.18,28.18-28.18h132.91C177.71,17.49,190.33,30.11,190.33,45.68z"/>
	<path class="st11" d="M190.33,45.38v15.7c-18.92,7.09-25.08-13.62-36.97-12.3c-11.31,1.26-14.08,12.71-19.62,22.65
		c-9.46,17.02-23.64,34.4-43.07,35.72c-14.09,0.96-27.04-6.86-39.53-13.47c-12.47-6.62-27.22-12.37-40.37-7.21
		c-3.66,1.44-6.9,3.63-9.7,6.34V45.38c0-15.57,12.62-28.18,28.18-28.18h132.91C177.71,17.19,190.33,29.81,190.33,45.38z"/>
	<path class="st12" d="M190.33,45.08v15.7c-18.92,7.09-25.08-13.62-36.97-12.3c-11.31,1.26-14.08,12.71-19.62,22.65
		c-9.46,17.02-23.64,34.4-43.07,35.72c-14.09,0.96-27.04-6.86-39.53-13.47c-12.47-6.62-27.22-12.37-40.37-7.21
		c-3.66,1.44-6.9,3.63-9.7,6.34V45.08c0-15.57,12.62-28.18,28.18-28.18h132.91C177.71,16.9,190.33,29.51,190.33,45.08z"/>
	<path class="st13" d="M190.33,44.78v15.7c-18.92,7.09-25.08-13.62-36.97-12.3c-11.31,1.26-14.08,12.71-19.62,22.65
		c-9.46,17.02-23.64,34.4-43.07,35.72c-14.09,0.96-27.04-6.86-39.53-13.47c-12.47-6.62-27.22-12.37-40.37-7.21
		c-3.66,1.44-6.9,3.63-9.7,6.34V44.78c0-15.57,12.62-28.18,28.18-28.18h132.91C177.71,16.6,190.33,29.22,190.33,44.78z"/>
	<path class="st14" d="M190.33,44.49v15.7c-18.92,7.09-25.08-13.62-36.97-12.3c-11.31,1.26-14.08,12.71-19.62,22.65
		c-9.46,17.02-23.64,34.4-43.07,35.72c-14.09,0.96-27.04-6.86-39.53-13.47c-12.47-6.62-27.22-12.37-40.37-7.21
		c-3.66,1.44-6.9,3.63-9.7,6.34V44.49c0-15.57,12.62-28.18,28.18-28.18h132.91C177.71,16.3,190.33,28.92,190.33,44.49z"/>
	<path class="st15" d="M190.33,44.19v15.7c-18.92,7.09-25.08-13.62-36.97-12.3c-11.31,1.26-14.08,12.71-19.62,22.65
		c-9.46,17.02-23.64,34.4-43.07,35.72c-14.09,0.96-27.04-6.86-39.53-13.47c-12.47-6.62-27.22-12.37-40.37-7.21
		c-3.66,1.44-6.9,3.63-9.7,6.34V44.19C1.07,28.62,13.68,16,29.25,16h132.91C177.71,16,190.33,28.62,190.33,44.19z"/>
	<path class="st16" d="M190.33,43.89v15.7c-18.92,7.09-25.08-13.62-36.97-12.3c-11.31,1.26-14.08,12.71-19.62,22.65
		c-9.46,17.02-23.64,34.4-43.07,35.72c-14.09,0.96-27.04-6.86-39.53-13.47c-12.47-6.62-27.22-12.37-40.37-7.21
		c-3.66,1.44-6.9,3.63-9.7,6.34V43.89c0-15.57,12.62-28.18,28.18-28.18h132.91C177.71,15.71,190.33,28.32,190.33,43.89z"/>
	<path class="st17" d="M190.33,43.59v15.7c-18.92,7.09-25.08-13.62-36.97-12.3c-11.31,1.26-14.08,12.71-19.62,22.65
		c-9.46,17.02-23.64,34.4-43.07,35.72c-14.09,0.96-27.04-6.86-39.53-13.47c-12.47-6.62-27.22-12.37-40.37-7.21
		c-3.66,1.44-6.9,3.63-9.7,6.34V43.59c0-15.57,12.62-28.18,28.18-28.18h132.91C177.71,15.41,190.33,28.02,190.33,43.59z"/>
	<path class="st18" d="M190.33,43.29v15.7c-18.92,7.09-25.08-13.62-36.97-12.3c-11.31,1.26-14.08,12.71-19.62,22.65
		c-9.46,17.02-23.64,34.4-43.07,35.72c-14.09,0.96-27.04-6.86-39.53-13.47c-12.47-6.62-27.22-12.37-40.37-7.21
		c-3.66,1.44-6.9,3.63-9.7,6.34V43.29c0-15.57,12.62-28.18,28.18-28.18h132.91C177.71,15.11,190.33,27.73,190.33,43.29z"/>
	<path class="st19" d="M190.33,43v15.7c-18.92,7.09-25.08-13.62-36.97-12.3c-11.31,1.26-14.08,12.71-19.62,22.65
		c-9.46,17.02-23.64,34.4-43.07,35.72c-14.09,0.96-27.04-6.86-39.53-13.47c-12.47-6.62-27.22-12.37-40.37-7.21
		c-3.66,1.44-6.9,3.63-9.7,6.34V43c0-15.57,12.62-28.18,28.18-28.18h132.91C177.71,14.81,190.33,27.43,190.33,43z"/>
	<path class="st20" d="M190.33,42.7v15.7c-18.92,7.09-25.08-13.62-36.97-12.3c-11.31,1.26-14.08,12.71-19.62,22.65
		c-9.46,17.02-23.64,34.4-43.07,35.72c-14.09,0.96-27.04-6.86-39.53-13.47c-12.47-6.62-27.22-12.37-40.37-7.21
		c-3.66,1.44-6.9,3.63-9.7,6.34V42.7c0-15.57,12.62-28.18,28.18-28.18h132.91C177.71,14.51,190.33,27.13,190.33,42.7z"/>
	<path class="st21" d="M190.33,42.4v15.7c-18.92,7.09-25.08-13.62-36.97-12.3c-11.31,1.26-14.08,12.71-19.62,22.65
		c-9.46,17.02-23.64,34.4-43.07,35.72c-14.09,0.96-27.04-6.86-39.53-13.47c-12.47-6.62-27.22-12.37-40.37-7.21
		c-3.66,1.44-6.9,3.63-9.7,6.34V42.4c0-15.57,12.62-28.18,28.18-28.18h132.91C177.71,14.22,190.33,26.83,190.33,42.4z"/>
	<path class="st22" d="M190.33,42.1v15.7c-18.92,7.09-25.08-13.62-36.97-12.3c-11.31,1.26-14.08,12.71-19.62,22.65
		c-9.46,17.02-23.64,34.4-43.07,35.72c-14.09,0.96-27.04-6.86-39.53-13.47c-12.47-6.62-27.22-12.37-40.37-7.21
		c-3.66,1.44-6.9,3.63-9.7,6.34V42.1c0-15.57,12.62-28.18,28.18-28.18h132.91C177.71,13.92,190.33,26.53,190.33,42.1z"/>
	<path class="st23" d="M190.33,41.8v15.7c-18.92,7.09-25.08-13.62-36.97-12.3c-11.31,1.26-14.08,12.71-19.62,22.65
		c-9.46,17.02-23.64,34.4-43.07,35.72c-14.09,0.96-27.04-6.86-39.53-13.47c-12.47-6.62-27.22-12.37-40.37-7.21
		c-3.66,1.44-6.9,3.63-9.7,6.34V41.8c0-15.57,12.62-28.18,28.18-28.18h132.91C177.71,13.62,190.33,26.24,190.33,41.8z"/>
	<path class="st24" d="M190.33,41.51v15.7c-18.92,7.09-25.08-13.62-36.97-12.3c-11.31,1.26-14.08,12.71-19.62,22.65
		c-9.46,17.02-23.64,34.4-43.07,35.72c-14.09,0.96-27.04-6.86-39.53-13.47c-12.47-6.62-27.22-12.37-40.37-7.21
		c-3.66,1.44-6.9,3.63-9.7,6.34V41.51c0-15.57,12.62-28.18,28.18-28.18h132.91C177.71,13.32,190.33,25.94,190.33,41.51z"/>
	<path class="st25" d="M190.33,41.21v15.7c-18.92,7.09-25.08-13.62-36.97-12.3c-11.31,1.26-14.08,12.71-19.62,22.65
		c-9.46,17.02-23.64,34.4-43.07,35.72c-14.09,0.96-27.04-6.86-39.53-13.47c-12.47-6.62-27.22-12.37-40.37-7.21
		c-3.66,1.44-6.9,3.63-9.7,6.34V41.21c0-15.57,12.62-28.18,28.18-28.18h132.91C177.71,13.02,190.33,25.64,190.33,41.21z"/>
	<path class="st26" d="M190.33,40.91v15.7c-18.92,7.09-25.08-13.62-36.97-12.3c-11.31,1.26-14.08,12.71-19.62,22.65
		c-9.46,17.02-23.64,34.4-43.07,35.72c-14.09,0.96-27.04-6.86-39.53-13.47C38.67,82.59,23.91,76.84,10.77,82
		c-3.66,1.44-6.9,3.63-9.7,6.34V40.91c0-15.57,12.62-28.18,28.18-28.18h132.91C177.71,12.73,190.33,25.34,190.33,40.91z"/>
	<path class="st27" d="M190.33,40.61v15.7c-18.92,7.09-25.08-13.62-36.97-12.3c-11.31,1.26-14.08,12.71-19.62,22.65
		c-9.46,17.02-23.64,34.4-43.07,35.72c-14.09,0.96-27.04-6.86-39.53-13.47c-12.47-6.62-27.22-12.37-40.37-7.21
		c-3.66,1.44-6.9,3.63-9.7,6.34V40.61c0-15.57,12.62-28.18,28.18-28.18h132.91C177.71,12.43,190.33,25.05,190.33,40.61z"/>
	<path class="st28" d="M190.33,40.31v15.7c-18.92,7.09-25.08-13.62-36.97-12.3c-11.31,1.26-14.08,12.71-19.62,22.65
		c-9.46,17.02-23.64,34.4-43.07,35.72c-14.09,0.96-27.04-6.86-39.53-13.47c-12.47-6.62-27.22-12.37-40.37-7.21
		c-3.66,1.44-6.9,3.63-9.7,6.34V40.31c0-15.57,12.62-28.18,28.18-28.18h132.91C177.71,12.13,190.33,24.75,190.33,40.31z"/>
	<path class="st29" d="M190.33,40.02v15.7c-18.92,7.09-25.08-13.62-36.97-12.3c-11.31,1.26-14.08,12.71-19.62,22.65
		c-9.46,17.02-23.64,34.4-43.07,35.72c-14.09,0.96-27.04-6.86-39.53-13.47c-12.47-6.62-27.22-12.37-40.37-7.21
		c-3.66,1.44-6.9,3.63-9.7,6.34V40.02c0-15.57,12.62-28.18,28.18-28.18h132.91C177.71,11.83,190.33,24.45,190.33,40.02z"/>
	<path class="st30" d="M190.33,39.72v15.7c-18.92,7.09-25.08-13.62-36.97-12.3c-11.31,1.26-14.08,12.71-19.62,22.65
		c-9.46,17.02-23.64,34.4-43.07,35.72c-14.09,0.96-27.04-6.86-39.53-13.47c-12.47-6.62-27.22-12.37-40.37-7.21
		c-3.66,1.44-6.9,3.63-9.7,6.34V39.72c0-15.57,12.62-28.18,28.18-28.18h132.91C177.71,11.54,190.33,24.15,190.33,39.72z"/>
	<path class="st31" d="M190.33,39.42v15.7c-18.92,7.09-25.08-13.62-36.97-12.3c-11.31,1.26-14.08,12.71-19.62,22.65
		c-9.46,17.02-23.64,34.4-43.07,35.72c-14.09,0.96-27.04-6.86-39.53-13.47c-12.47-6.62-27.22-12.37-40.37-7.21
		c-3.66,1.44-6.9,3.63-9.7,6.34V39.42c0-15.57,12.62-28.18,28.18-28.18h132.91C177.71,11.24,190.33,23.85,190.33,39.42z"/>
	<path class="st32" d="M190.33,39.12v15.7c-18.92,7.09-25.08-13.62-36.97-12.3c-11.31,1.26-14.08,12.71-19.62,22.65
		c-9.46,17.02-23.64,34.4-43.07,35.72c-14.09,0.96-27.04-6.86-39.53-13.47c-12.47-6.62-27.22-12.37-40.37-7.21
		c-3.66,1.44-6.9,3.63-9.7,6.34V39.12c0-15.57,12.62-28.18,28.18-28.18h132.91C177.71,10.94,190.33,23.56,190.33,39.12z"/>
	<path class="st33" d="M190.33,38.83v15.7c-18.92,7.09-25.08-13.62-36.97-12.3c-11.31,1.26-14.08,12.71-19.62,22.65
		c-9.46,17.02-23.64,34.4-43.07,35.72c-14.09,0.96-27.04-6.86-39.53-13.47c-12.47-6.62-27.22-12.37-40.37-7.21
		c-3.66,1.44-6.9,3.63-9.7,6.34V38.83c0-15.57,12.62-28.18,28.18-28.18h132.91C177.71,10.64,190.33,23.26,190.33,38.83z"/>
	<path class="st34" d="M190.33,38.53v15.7c-18.92,7.09-25.08-13.62-36.97-12.3c-11.31,1.26-14.08,12.71-19.62,22.65
		c-9.46,17.02-23.64,34.4-43.07,35.72c-14.09,0.96-27.04-6.86-39.53-13.47c-12.47-6.62-27.22-12.37-40.37-7.21
		c-3.66,1.44-6.9,3.63-9.7,6.34V38.53c0-15.57,12.62-28.18,28.18-28.18h132.91C177.71,10.34,190.33,22.96,190.33,38.53z"/>
	<path class="st35" d="M190.33,38.23v15.7c-18.92,7.09-25.08-13.62-36.97-12.3c-11.31,1.26-14.08,12.71-19.62,22.65
		c-9.46,17.02-23.64,34.4-43.07,35.72c-14.09,0.96-27.04-6.86-39.53-13.47c-12.47-6.62-27.22-12.37-40.37-7.21
		c-3.66,1.44-6.9,3.63-9.7,6.34V38.23c0-15.57,12.62-28.18,28.18-28.18h132.91C177.71,10.05,190.33,22.66,190.33,38.23z"/>
	<path class="st36" d="M190.33,37.93v15.7c-18.92,7.09-25.08-13.62-36.97-12.3c-11.31,1.26-14.08,12.71-19.62,22.65
		C124.27,81,110.1,98.38,90.67,99.7c-14.09,0.96-27.04-6.86-39.53-13.47c-12.47-6.62-27.22-12.37-40.37-7.21
		c-3.66,1.44-6.9,3.63-9.7,6.34V37.93c0-15.57,12.62-28.18,28.18-28.18h132.91C177.71,9.75,190.33,22.36,190.33,37.93z"/>
	<path class="st37" d="M190.33,37.63v15.7c-18.92,7.09-25.08-13.62-36.97-12.3c-11.31,1.26-14.08,12.71-19.62,22.65
		c-9.46,17.02-23.64,34.4-43.07,35.72c-14.09,0.96-27.04-6.86-39.53-13.47c-12.47-6.62-27.22-12.37-40.37-7.21
		c-3.66,1.44-6.9,3.63-9.7,6.34V37.63c0-15.57,12.62-28.18,28.18-28.18h132.91C177.71,9.45,190.33,22.07,190.33,37.63z"/>
	<path class="st38" d="M190.33,37.34v15.7c-18.92,7.09-25.08-13.62-36.97-12.3c-11.31,1.26-14.08,12.71-19.62,22.65
		c-9.46,17.02-23.64,34.4-43.07,35.72c-14.09,0.96-27.04-6.86-39.53-13.47c-12.47-6.62-27.22-12.37-40.37-7.21
		c-3.66,1.44-6.9,3.63-9.7,6.34V37.34c0-15.57,12.62-28.18,28.18-28.18h132.91C177.71,9.15,190.33,21.77,190.33,37.34z"/>
	<path class="st39" d="M190.33,37.04v15.7c-18.92,7.09-25.08-13.62-36.97-12.3c-11.31,1.26-14.08,12.71-19.62,22.65
		c-9.46,17.02-23.64,34.4-43.07,35.72c-14.09,0.96-27.04-6.86-39.53-13.47c-12.47-6.62-27.22-12.37-40.37-7.21
		c-3.66,1.44-6.9,3.63-9.7,6.34V37.04c0-15.57,12.62-28.18,28.18-28.18h132.91C177.71,8.85,190.33,21.47,190.33,37.04z"/>
	<path class="st40" d="M190.33,36.74v15.7c-18.92,7.09-25.08-13.62-36.97-12.3c-11.31,1.26-14.08,12.71-19.62,22.65
		c-9.46,17.02-23.64,34.4-43.07,35.72c-14.09,0.96-27.04-6.86-39.53-13.47c-12.47-6.62-27.22-12.37-40.37-7.21
		c-3.66,1.44-6.9,3.63-9.7,6.34V36.74c0-15.57,12.62-28.18,28.18-28.18h132.91C177.71,8.56,190.33,21.17,190.33,36.74z"/>
	<path class="st41" d="M190.33,36.44v15.7c-18.92,7.09-25.08-13.62-36.97-12.3c-11.31,1.26-14.08,12.71-19.62,22.65
		c-9.46,17.02-23.64,34.4-43.07,35.72c-14.09,0.96-27.04-6.86-39.53-13.47c-12.47-6.62-27.22-12.37-40.37-7.21
		c-3.66,1.44-6.9,3.63-9.7,6.34V36.44c0-15.57,12.62-28.18,28.18-28.18h132.91C177.71,8.26,190.33,20.88,190.33,36.44z"/>
	<path class="st42" d="M190.33,36.14v15.7c-18.92,7.09-25.08-13.62-36.97-12.3c-11.31,1.26-14.08,12.71-19.62,22.65
		c-9.46,17.02-23.64,34.4-43.07,35.72c-14.09,0.96-27.04-6.86-39.53-13.47c-12.47-6.62-27.22-12.37-40.37-7.21
		c-3.66,1.44-6.9,3.63-9.7,6.34V36.14c0-15.57,12.62-28.18,28.18-28.18h132.91C177.71,7.96,190.33,20.58,190.33,36.14z"/>
	<path class="st43" d="M190.33,35.85v15.7c-18.92,7.09-25.08-13.62-36.97-12.3c-11.31,1.26-14.08,12.71-19.62,22.65
		c-9.46,17.02-23.64,34.4-43.07,35.72c-14.09,0.96-27.04-6.86-39.53-13.47c-12.47-6.62-27.22-12.37-40.37-7.21
		c-3.66,1.44-6.9,3.63-9.7,6.34V35.85c0-15.57,12.62-28.18,28.18-28.18h132.91C177.71,7.66,190.33,20.28,190.33,35.85z"/>
	<path class="st44" d="M190.33,35.55v15.7c-18.92,7.09-25.08-13.62-36.97-12.3c-11.31,1.26-14.08,12.71-19.62,22.65
		c-9.46,17.02-23.64,34.4-43.07,35.72c-14.09,0.96-27.04-6.86-39.53-13.47c-12.47-6.62-27.22-12.37-40.37-7.21
		c-3.66,1.44-6.9,3.63-9.7,6.34V35.55c0-15.57,12.62-28.18,28.18-28.18h132.91C177.71,7.36,190.33,19.98,190.33,35.55z"/>
	<path class="st45" d="M190.33,35.25v15.7c-18.92,7.09-25.08-13.62-36.97-12.3c-11.31,1.26-14.08,12.71-19.62,22.65
		c-9.46,17.02-23.64,34.4-43.07,35.72c-14.09,0.96-27.04-6.86-39.53-13.47c-12.47-6.62-27.22-12.37-40.37-7.21
		c-3.66,1.44-6.9,3.63-9.7,6.34V35.25c0-15.57,12.62-28.18,28.18-28.18h132.91C177.71,7.07,190.33,19.68,190.33,35.25z"/>
	<path class="st46" d="M190.33,34.95v15.7c-18.92,7.09-25.08-13.62-36.97-12.3c-11.31,1.26-14.08,12.71-19.62,22.65
		c-9.46,17.02-23.64,34.4-43.07,35.72c-14.09,0.96-27.04-6.86-39.53-13.47c-12.47-6.62-27.22-12.37-40.37-7.21
		c-3.66,1.44-6.9,3.63-9.7,6.34V34.95c0-15.57,12.62-28.18,28.18-28.18h132.91C177.71,6.77,190.33,19.39,190.33,34.95z"/>
	<path class="st47" d="M190.33,34.66v15.7c-18.92,7.09-25.08-13.62-36.97-12.3c-11.31,1.26-14.08,12.71-19.62,22.65
		c-9.46,17.02-23.64,34.4-43.07,35.72c-14.09,0.96-27.04-6.86-39.53-13.47c-12.47-6.62-27.22-12.37-40.37-7.21
		c-3.66,1.44-6.9,3.63-9.7,6.34V34.66c0-15.57,12.62-28.18,28.18-28.18h132.91C177.71,6.47,190.33,19.09,190.33,34.66z"/>
	<path class="st48" d="M190.33,34.36v15.7c-18.92,7.09-25.08-13.62-36.97-12.3c-11.31,1.26-14.08,12.71-19.62,22.65
		c-9.46,17.02-23.64,34.4-43.07,35.72c-14.09,0.96-27.04-6.86-39.53-13.47c-12.47-6.62-27.22-12.37-40.37-7.21
		c-3.66,1.44-6.9,3.63-9.7,6.34V34.36c0-15.57,12.62-28.18,28.18-28.18h132.91C177.71,6.17,190.33,18.79,190.33,34.36z"/>
	<path class="st49" d="M190.33,34.06v15.7c-18.92,7.09-25.08-13.62-36.97-12.3c-11.31,1.26-14.08,12.71-19.62,22.65
		c-9.46,17.02-23.64,34.4-43.07,35.72c-14.09,0.96-27.04-6.86-39.53-13.47c-12.47-6.62-27.22-12.37-40.37-7.21
		c-3.66,1.44-6.9,3.63-9.7,6.34V34.06c0-15.57,12.62-28.18,28.18-28.18h132.91C177.71,5.88,190.33,18.49,190.33,34.06z"/>
	<path class="st50" d="M190.33,33.76v15.7c-18.92,7.09-25.08-13.62-36.97-12.3c-11.31,1.26-14.08,12.71-19.62,22.65
		c-9.46,17.02-23.64,34.4-43.07,35.72c-14.09,0.96-27.04-6.86-39.53-13.47c-12.47-6.62-27.22-12.37-40.37-7.21
		c-3.66,1.44-6.9,3.63-9.7,6.34V33.76c0-15.57,12.62-28.18,28.18-28.18h132.91C177.71,5.58,190.33,18.19,190.33,33.76z"/>
	<path class="st51" d="M190.33,33.46v15.7c-18.92,7.09-25.08-13.62-36.97-12.3c-11.31,1.26-14.08,12.71-19.62,22.65
		c-9.46,17.02-23.64,34.4-43.07,35.72c-14.09,0.96-27.04-6.86-39.53-13.47c-12.47-6.62-27.22-12.37-40.37-7.21
		c-3.66,1.44-6.9,3.63-9.7,6.34V33.46c0-15.57,12.62-28.18,28.18-28.18h132.91C177.71,5.28,190.33,17.9,190.33,33.46z"/>
	<path class="st52" d="M190.33,33.17v15.7c-18.92,7.09-25.08-13.62-36.97-12.3c-11.31,1.26-14.08,12.71-19.62,22.65
		c-9.46,17.02-23.64,34.4-43.07,35.72c-14.09,0.96-27.04-6.86-39.53-13.47c-12.47-6.62-27.22-12.37-40.37-7.21
		c-3.66,1.44-6.9,3.63-9.7,6.34V33.17c0-15.57,12.62-28.18,28.18-28.18h132.91C177.71,4.98,190.33,17.6,190.33,33.17z"/>
</g>
<path class="st53" d="M190.33,33.17v15.7c-18.92,7.09-25.08-13.62-36.97-12.3c-11.31,1.26-14.08,12.71-19.62,22.65
	c-9.46,17.02-23.64,34.4-43.07,35.72c-14.09,0.96-27.04-6.86-39.53-13.47c-12.47-6.62-27.22-12.37-40.37-7.21
	c-3.66,1.44-6.9,3.63-9.7,6.34V33.17c0-15.57,12.62-28.18,28.18-28.18h132.91C177.71,4.98,190.33,17.6,190.33,33.17z"/>
</svg>
