<?xml version="1.0" encoding="utf-8"?>
<!-- Generator: Adobe Illustrator 25.2.1, SVG Export Plug-In . SVG Version: 6.00 Build 0)  -->
<svg version="1.1" id="Layer_1" xmlns="http://www.w3.org/2000/svg" xmlns:xlink="http://www.w3.org/1999/xlink" x="0px" y="0px"
	 viewBox="0 0 191.4 115.18" style="enable-background:new 0 0 191.4 115.18;" xml:space="preserve">
<style type="text/css">
	.st0{opacity:0.3;}
	.st1{fill:#FFFFFF;}
	.st2{fill:#FDFDFD;}
	.st3{fill:#FBFBFB;}
	.st4{fill:#F9F9F9;}
	.st5{fill:#F7F7F7;}
	.st6{fill:#F5F5F5;}
	.st7{fill:#F3F3F3;}
	.st8{fill:#F1F1F1;}
	.st9{fill:#EFEFEF;}
	.st10{fill:#EDEDED;}
	.st11{fill:#EBEBEB;}
	.st12{fill:#E9E8E9;}
	.st13{fill:#E7E6E7;}
	.st14{fill:#E5E4E5;}
	.st15{fill:#E3E2E3;}
	.st16{fill:#E2E0E1;}
	.st17{fill:#E0DEDF;}
	.st18{fill:#DEDCDD;}
	.st19{fill:#DCDADB;}
	.st20{fill:#DAD8D9;}
	.st21{fill:#D8D6D7;}
	.st22{fill:#D6D5D5;}
	.st23{fill:#D4D3D3;}
	.st24{fill:#D2D1D1;}
	.st25{fill:#D0CFCF;}
	.st26{fill:#CECDCD;}
	.st27{fill:#CCCBCC;}
	.st28{fill:#CBC9CA;}
	.st29{fill:#C9C7C8;}
	.st30{fill:#C7C5C6;}
	.st31{fill:#C5C4C4;}
	.st32{fill:#C3C2C2;}
	.st33{fill:#C2C0C0;}
	.st34{fill:#C0BEBF;}
	.st35{fill:#BEBCBD;}
	.st36{fill:#BCBABB;}
	.st37{fill:#BAB9B9;}
	.st38{fill:#B8B7B7;}
	.st39{fill:#B6B5B5;}
	.st40{fill:#B4B3B3;}
	.st41{fill:#B3B1B2;}
	.st42{fill:#B1B0B0;}
	.st43{fill:#AFAEAE;}
	.st44{fill:#ADACAC;}
	.st45{fill:#ABAAAA;}
	.st46{fill:#A9A8A9;}
	.st47{fill:#A7A7A7;}
	.st48{fill:#A5A5A5;}
	.st49{fill:#A4A3A3;}
	.st50{fill:#A2A1A2;}
	.st51{fill:#A0A0A0;}
	.st52{fill:#9E9E9E;}
	.st53{fill:#E83A63;}
</style>
<g class="st0">
	<path class="st1" d="M190.4,47.09v15.7c-18.92,7.09-25.08-13.62-36.97-12.3c-11.31,1.26-14.08,12.71-19.62,22.65
		c-9.46,17.02-23.64,34.4-43.07,35.72C76.64,109.82,63.69,102,51.2,95.39c-12.47-6.62-27.22-12.37-40.37-7.21
		c-3.66,1.44-6.9,3.63-9.7,6.34V47.09c0-15.57,12.62-28.18,28.18-28.18h132.91C177.78,18.91,190.4,31.52,190.4,47.09z"/>
	<path class="st2" d="M190.4,46.79v15.7c-18.92,7.09-25.08-13.62-36.97-12.3c-11.31,1.26-14.08,12.71-19.62,22.65
		c-9.46,17.02-23.64,34.4-43.07,35.72c-14.09,0.96-27.04-6.86-39.53-13.47c-12.47-6.62-27.22-12.37-40.37-7.21
		c-3.66,1.44-6.9,3.63-9.7,6.34V46.79c0-15.57,12.62-28.18,28.18-28.18h132.91C177.78,18.61,190.4,31.23,190.4,46.79z"/>
	<path class="st3" d="M190.4,46.5v15.7c-18.92,7.09-25.08-13.62-36.97-12.3c-11.31,1.26-14.08,12.71-19.62,22.65
		c-9.46,17.02-23.64,34.4-43.07,35.72c-14.09,0.96-27.04-6.86-39.53-13.47c-12.47-6.62-27.22-12.37-40.37-7.21
		c-3.66,1.44-6.9,3.63-9.7,6.34V46.5c0-15.57,12.62-28.18,28.18-28.18h132.91C177.78,18.31,190.4,30.93,190.4,46.5z"/>
	<path class="st4" d="M190.4,46.2v15.7c-18.92,7.09-25.08-13.62-36.97-12.3c-11.31,1.26-14.08,12.71-19.62,22.65
		c-9.46,17.02-23.64,34.4-43.07,35.72c-14.09,0.96-27.04-6.86-39.53-13.47c-12.47-6.62-27.22-12.37-40.37-7.21
		c-3.66,1.44-6.9,3.63-9.7,6.34V46.2c0-15.57,12.62-28.18,28.18-28.18h132.91C177.78,18.01,190.4,30.63,190.4,46.2z"/>
	<path class="st5" d="M190.4,45.9v15.7c-18.92,7.09-25.08-13.62-36.97-12.3c-11.31,1.26-14.08,12.71-19.62,22.65
		c-9.46,17.02-23.64,34.4-43.07,35.72c-14.09,0.96-27.04-6.86-39.53-13.47c-12.47-6.62-27.22-12.37-40.37-7.21
		c-3.66,1.44-6.9,3.63-9.7,6.34V45.9c0-15.57,12.62-28.18,28.18-28.18h132.91C177.78,17.72,190.4,30.33,190.4,45.9z"/>
	<path class="st6" d="M190.4,45.6v15.7c-18.92,7.09-25.08-13.62-36.97-12.3c-11.31,1.26-14.08,12.71-19.62,22.65
		c-9.46,17.02-23.64,34.4-43.07,35.72c-14.09,0.96-27.04-6.86-39.53-13.47c-12.47-6.62-27.22-12.37-40.37-7.21
		c-3.66,1.44-6.9,3.63-9.7,6.34V45.6c0-15.57,12.62-28.18,28.18-28.18h132.91C177.78,17.42,190.4,30.04,190.4,45.6z"/>
	<path class="st7" d="M190.4,45.3V61c-18.92,7.09-25.08-13.62-36.97-12.3c-11.31,1.26-14.08,12.71-19.62,22.65
		c-9.46,17.02-23.64,34.4-43.07,35.72c-14.09,0.96-27.04-6.86-39.53-13.47c-12.47-6.62-27.22-12.37-40.37-7.21
		c-3.66,1.44-6.9,3.63-9.7,6.34V45.3c0-15.57,12.62-28.18,28.18-28.18h132.91C177.78,17.12,190.4,29.74,190.4,45.3z"/>
	<path class="st8" d="M190.4,45.01v15.7c-18.92,7.09-25.08-13.62-36.97-12.3c-11.31,1.26-14.08,12.71-19.62,22.65
		c-9.46,17.02-23.64,34.4-43.07,35.72c-14.09,0.96-27.04-6.86-39.53-13.47c-12.47-6.62-27.22-12.37-40.37-7.21
		c-3.66,1.44-6.9,3.63-9.7,6.34V45.01c0-15.57,12.62-28.18,28.18-28.18h132.91C177.78,16.82,190.4,29.44,190.4,45.01z"/>
	<path class="st9" d="M190.4,44.71v15.7c-18.92,7.09-25.08-13.62-36.97-12.3c-11.31,1.26-14.08,12.71-19.62,22.65
		c-9.46,17.02-23.64,34.4-43.07,35.72c-14.09,0.96-27.04-6.86-39.53-13.47c-12.47-6.62-27.22-12.37-40.37-7.21
		c-3.66,1.44-6.9,3.63-9.7,6.34V44.71c0-15.57,12.62-28.18,28.18-28.18h132.91C177.78,16.52,190.4,29.14,190.4,44.71z"/>
	<path class="st10" d="M190.4,44.41v15.7c-18.92,7.09-25.08-13.62-36.97-12.3c-11.31,1.26-14.08,12.71-19.62,22.65
		c-9.46,17.02-23.64,34.4-43.07,35.72c-14.09,0.96-27.04-6.86-39.53-13.47c-12.47-6.62-27.22-12.37-40.37-7.21
		c-3.66,1.44-6.9,3.63-9.7,6.34V44.41c0-15.57,12.62-28.18,28.18-28.18h132.91C177.78,16.23,190.4,28.84,190.4,44.41z"/>
	<path class="st11" d="M190.4,44.11v15.7c-18.92,7.09-25.08-13.62-36.97-12.3c-11.31,1.26-14.08,12.71-19.62,22.65
		c-9.46,17.02-23.64,34.4-43.07,35.72c-14.09,0.96-27.04-6.86-39.53-13.47c-12.47-6.62-27.22-12.37-40.37-7.21
		c-3.66,1.44-6.9,3.63-9.7,6.34V44.11c0-15.57,12.62-28.18,28.18-28.18h132.91C177.78,15.93,190.4,28.55,190.4,44.11z"/>
	<path class="st12" d="M190.4,43.82v15.7c-18.92,7.09-25.08-13.62-36.97-12.3c-11.31,1.26-14.08,12.71-19.62,22.65
		c-9.46,17.02-23.64,34.4-43.07,35.72c-14.09,0.96-27.04-6.86-39.53-13.47c-12.47-6.62-27.22-12.37-40.37-7.21
		c-3.66,1.44-6.9,3.63-9.7,6.34V43.82c0-15.57,12.62-28.18,28.18-28.18h132.91C177.78,15.63,190.4,28.25,190.4,43.82z"/>
	<path class="st13" d="M190.4,43.52v15.7c-18.92,7.09-25.08-13.62-36.97-12.3c-11.31,1.26-14.08,12.71-19.62,22.65
		c-9.46,17.02-23.64,34.4-43.07,35.72c-14.09,0.96-27.04-6.86-39.53-13.47c-12.47-6.62-27.22-12.37-40.37-7.21
		c-3.66,1.44-6.9,3.63-9.7,6.34V43.52c0-15.57,12.62-28.18,28.18-28.18h132.91C177.78,15.33,190.4,27.95,190.4,43.52z"/>
	<path class="st14" d="M190.4,43.22v15.7c-18.92,7.09-25.08-13.62-36.97-12.3c-11.31,1.26-14.08,12.71-19.62,22.65
		c-9.46,17.02-23.64,34.4-43.07,35.72c-14.09,0.96-27.04-6.86-39.53-13.47c-12.47-6.62-27.22-12.37-40.37-7.21
		c-3.66,1.44-6.9,3.63-9.7,6.34V43.22c0-15.57,12.62-28.18,28.18-28.18h132.91C177.78,15.04,190.4,27.65,190.4,43.22z"/>
	<path class="st15" d="M190.4,42.92v15.7c-18.92,7.09-25.08-13.62-36.97-12.3c-11.31,1.26-14.08,12.71-19.62,22.65
		c-9.46,17.02-23.64,34.4-43.07,35.72c-14.09,0.96-27.04-6.86-39.53-13.47c-12.47-6.62-27.22-12.37-40.37-7.21
		c-3.66,1.44-6.9,3.63-9.7,6.34V42.92c0-15.57,12.62-28.18,28.18-28.18h132.91C177.78,14.74,190.4,27.35,190.4,42.92z"/>
	<path class="st16" d="M190.4,42.62v15.7c-18.92,7.09-25.08-13.62-36.97-12.3c-11.31,1.26-14.08,12.71-19.62,22.65
		c-9.46,17.02-23.64,34.4-43.07,35.72c-14.09,0.96-27.04-6.86-39.53-13.47c-12.47-6.62-27.22-12.37-40.37-7.21
		c-3.66,1.44-6.9,3.63-9.7,6.34V42.62c0-15.57,12.62-28.18,28.18-28.18h132.91C177.78,14.44,190.4,27.06,190.4,42.62z"/>
	<path class="st17" d="M190.4,42.33v15.7c-18.92,7.09-25.08-13.62-36.97-12.3c-11.31,1.26-14.08,12.71-19.62,22.65
		c-9.46,17.02-23.64,34.4-43.07,35.72c-14.09,0.96-27.04-6.86-39.53-13.47C38.73,84,23.98,78.26,10.84,83.41
		c-3.66,1.44-6.9,3.63-9.7,6.34V42.33c0-15.57,12.62-28.18,28.18-28.18h132.91C177.78,14.14,190.4,26.76,190.4,42.33z"/>
	<path class="st18" d="M190.4,42.03v15.7c-18.92,7.09-25.08-13.62-36.97-12.3c-11.31,1.26-14.08,12.71-19.62,22.65
		c-9.46,17.02-23.64,34.4-43.07,35.72c-14.09,0.96-27.04-6.86-39.53-13.47c-12.47-6.62-27.22-12.37-40.37-7.21
		c-3.66,1.44-6.9,3.63-9.7,6.34V42.03c0-15.57,12.62-28.18,28.18-28.18h132.91C177.78,13.84,190.4,26.46,190.4,42.03z"/>
	<path class="st19" d="M190.4,41.73v15.7c-18.92,7.09-25.08-13.62-36.97-12.3c-11.31,1.26-14.08,12.71-19.62,22.65
		c-9.46,17.02-23.64,34.4-43.07,35.72c-14.09,0.96-27.04-6.86-39.53-13.47c-12.47-6.62-27.22-12.37-40.37-7.21
		c-3.66,1.44-6.9,3.63-9.7,6.34V41.73c0-15.57,12.62-28.18,28.18-28.18h132.91C177.78,13.55,190.4,26.16,190.4,41.73z"/>
	<path class="st20" d="M190.4,41.43v15.7c-18.92,7.09-25.08-13.62-36.97-12.3c-11.31,1.26-14.08,12.71-19.62,22.65
		c-9.46,17.02-23.64,34.4-43.07,35.72c-14.09,0.96-27.04-6.86-39.53-13.47c-12.47-6.62-27.22-12.37-40.37-7.21
		c-3.66,1.44-6.9,3.63-9.7,6.34V41.43c0-15.57,12.62-28.18,28.18-28.18h132.91C177.78,13.25,190.4,25.87,190.4,41.43z"/>
	<path class="st21" d="M190.4,41.13v15.7c-18.92,7.09-25.08-13.62-36.97-12.3c-11.31,1.26-14.08,12.71-19.62,22.65
		c-9.46,17.02-23.64,34.4-43.07,35.72c-14.09,0.96-27.04-6.86-39.53-13.47c-12.47-6.62-27.22-12.37-40.37-7.21
		c-3.66,1.44-6.9,3.63-9.7,6.34V41.13c0-15.57,12.62-28.18,28.18-28.18h132.91C177.78,12.95,190.4,25.57,190.4,41.13z"/>
	<path class="st22" d="M190.4,40.84v15.7c-18.92,7.09-25.08-13.62-36.97-12.3c-11.31,1.26-14.08,12.71-19.62,22.65
		c-9.46,17.02-23.64,34.4-43.07,35.72c-14.09,0.96-27.04-6.86-39.53-13.47c-12.47-6.62-27.22-12.37-40.37-7.21
		c-3.66,1.44-6.9,3.63-9.7,6.34V40.84c0-15.57,12.62-28.18,28.18-28.18h132.91C177.78,12.65,190.4,25.27,190.4,40.84z"/>
	<path class="st23" d="M190.4,40.54v15.7c-18.92,7.09-25.08-13.62-36.97-12.3c-11.31,1.26-14.08,12.71-19.62,22.65
		c-9.46,17.02-23.64,34.4-43.07,35.72c-14.09,0.96-27.04-6.86-39.53-13.47c-12.47-6.62-27.22-12.37-40.37-7.21
		c-3.66,1.44-6.9,3.63-9.7,6.34V40.54c0-15.57,12.62-28.18,28.18-28.18h132.91C177.78,12.35,190.4,24.97,190.4,40.54z"/>
	<path class="st24" d="M190.4,40.24v15.7c-18.92,7.09-25.08-13.62-36.97-12.3c-11.31,1.26-14.08,12.71-19.62,22.65
		c-9.46,17.02-23.64,34.4-43.07,35.72c-14.09,0.96-27.04-6.86-39.53-13.47c-12.47-6.62-27.22-12.37-40.37-7.21
		c-3.66,1.44-6.9,3.63-9.7,6.34V40.24c0-15.57,12.62-28.18,28.18-28.18h132.91C177.78,12.06,190.4,24.67,190.4,40.24z"/>
	<path class="st25" d="M190.4,39.94v15.7c-18.92,7.09-25.08-13.62-36.97-12.3c-11.31,1.26-14.08,12.71-19.62,22.65
		c-9.46,17.02-23.64,34.4-43.07,35.72c-14.09,0.96-27.04-6.86-39.53-13.47c-12.47-6.62-27.22-12.37-40.37-7.21
		c-3.66,1.44-6.9,3.63-9.7,6.34V39.94c0-15.57,12.62-28.18,28.18-28.18h132.91C177.78,11.76,190.4,24.38,190.4,39.94z"/>
	<path class="st26" d="M190.4,39.64v15.7c-18.92,7.09-25.08-13.62-36.97-12.3c-11.31,1.26-14.08,12.71-19.62,22.65
		c-9.46,17.02-23.64,34.4-43.07,35.72c-14.09,0.96-27.04-6.86-39.53-13.47c-12.47-6.62-27.22-12.37-40.37-7.21
		c-3.66,1.44-6.9,3.63-9.7,6.34V39.64c0-15.57,12.62-28.18,28.18-28.18h132.91C177.78,11.46,190.4,24.08,190.4,39.64z"/>
	<path class="st27" d="M190.4,39.35v15.7c-18.92,7.09-25.08-13.62-36.97-12.3C142.12,44,139.34,55.45,133.8,65.4
		c-9.46,17.02-23.64,34.4-43.07,35.72c-14.09,0.96-27.04-6.86-39.53-13.47c-12.47-6.62-27.22-12.37-40.37-7.21
		c-3.66,1.44-6.9,3.63-9.7,6.34V39.35c0-15.57,12.62-28.18,28.18-28.18h132.91C177.78,11.16,190.4,23.78,190.4,39.35z"/>
	<path class="st28" d="M190.4,39.05v15.7c-18.92,7.09-25.08-13.62-36.97-12.3c-11.31,1.26-14.08,12.71-19.62,22.65
		c-9.46,17.02-23.64,34.4-43.07,35.72c-14.09,0.96-27.04-6.86-39.53-13.47c-12.47-6.62-27.22-12.37-40.37-7.21
		c-3.66,1.44-6.9,3.63-9.7,6.34V39.05c0-15.57,12.62-28.18,28.18-28.18h132.91C177.78,10.87,190.4,23.48,190.4,39.05z"/>
	<path class="st29" d="M190.4,38.75v15.7c-18.92,7.09-25.08-13.62-36.97-12.3c-11.31,1.26-14.08,12.71-19.62,22.65
		c-9.46,17.02-23.64,34.4-43.07,35.72c-14.09,0.96-27.04-6.86-39.53-13.47c-12.47-6.62-27.22-12.37-40.37-7.21
		c-3.66,1.44-6.9,3.63-9.7,6.34V38.75c0-15.57,12.62-28.18,28.18-28.18h132.91C177.78,10.57,190.4,23.18,190.4,38.75z"/>
	<path class="st30" d="M190.4,38.45v15.7c-18.92,7.09-25.08-13.62-36.97-12.3c-11.31,1.26-14.08,12.71-19.62,22.65
		c-9.46,17.02-23.64,34.4-43.07,35.72c-14.09,0.96-27.04-6.86-39.53-13.47c-12.47-6.62-27.22-12.37-40.37-7.21
		c-3.66,1.44-6.9,3.63-9.7,6.34V38.45c0-15.57,12.62-28.18,28.18-28.18h132.91C177.78,10.27,190.4,22.89,190.4,38.45z"/>
	<path class="st31" d="M190.4,38.16v15.7c-18.92,7.09-25.08-13.62-36.97-12.3c-11.31,1.26-14.08,12.71-19.62,22.65
		c-9.46,17.02-23.64,34.4-43.07,35.72c-14.09,0.96-27.04-6.86-39.53-13.47c-12.47-6.62-27.22-12.37-40.37-7.21
		c-3.66,1.44-6.9,3.63-9.7,6.34V38.16c0-15.57,12.62-28.18,28.18-28.18h132.91C177.78,9.97,190.4,22.59,190.4,38.16z"/>
	<path class="st32" d="M190.4,37.86v15.7c-18.92,7.09-25.08-13.62-36.97-12.3c-11.31,1.26-14.08,12.71-19.62,22.65
		c-9.46,17.02-23.64,34.4-43.07,35.72c-14.09,0.96-27.04-6.86-39.53-13.47c-12.47-6.62-27.22-12.37-40.37-7.21
		c-3.66,1.44-6.9,3.63-9.7,6.34V37.86c0-15.57,12.62-28.18,28.18-28.18h132.91C177.78,9.67,190.4,22.29,190.4,37.86z"/>
	<path class="st33" d="M190.4,37.56v15.7c-18.92,7.09-25.08-13.62-36.97-12.3c-11.31,1.26-14.08,12.71-19.62,22.65
		c-9.46,17.02-23.64,34.4-43.07,35.72c-14.09,0.96-27.04-6.86-39.53-13.47c-12.47-6.62-27.22-12.37-40.37-7.21
		c-3.66,1.44-6.9,3.63-9.7,6.34V37.56c0-15.57,12.62-28.18,28.18-28.18h132.91C177.78,9.38,190.4,21.99,190.4,37.56z"/>
	<path class="st34" d="M190.4,37.26v15.7c-18.92,7.09-25.08-13.62-36.97-12.3c-11.31,1.26-14.08,12.71-19.62,22.65
		c-9.46,17.02-23.64,34.4-43.07,35.72c-14.09,0.96-27.04-6.86-39.53-13.47c-12.47-6.62-27.22-12.37-40.37-7.21
		c-3.66,1.44-6.9,3.63-9.7,6.34V37.26c0-15.57,12.62-28.18,28.18-28.18h132.91C177.78,9.08,190.4,21.69,190.4,37.26z"/>
	<path class="st35" d="M190.4,36.96v15.7c-18.92,7.09-25.08-13.62-36.97-12.3c-11.31,1.26-14.08,12.71-19.62,22.65
		c-9.46,17.02-23.64,34.4-43.07,35.72c-14.09,0.96-27.04-6.86-39.53-13.47c-12.47-6.62-27.22-12.37-40.37-7.21
		c-3.66,1.44-6.9,3.63-9.7,6.34V36.96c0-15.57,12.62-28.18,28.18-28.18h132.91C177.78,8.78,190.4,21.4,190.4,36.96z"/>
	<path class="st36" d="M190.4,36.67v15.7c-18.92,7.09-25.08-13.62-36.97-12.3c-11.31,1.26-14.08,12.71-19.62,22.65
		c-9.46,17.02-23.64,34.4-43.07,35.72c-14.09,0.96-27.04-6.86-39.53-13.47c-12.47-6.62-27.22-12.37-40.37-7.21
		c-3.66,1.44-6.9,3.63-9.7,6.34V36.67c0-15.57,12.62-28.18,28.18-28.18h132.91C177.78,8.48,190.4,21.1,190.4,36.67z"/>
	<path class="st37" d="M190.4,36.37v15.7c-18.92,7.09-25.08-13.62-36.97-12.3c-11.31,1.26-14.08,12.71-19.62,22.65
		c-9.46,17.02-23.64,34.4-43.07,35.72c-14.09,0.96-27.04-6.86-39.53-13.47c-12.47-6.62-27.22-12.37-40.37-7.21
		c-3.66,1.44-6.9,3.63-9.7,6.34V36.37c0-15.57,12.62-28.18,28.18-28.18h132.91C177.78,8.18,190.4,20.8,190.4,36.37z"/>
	<path class="st38" d="M190.4,36.07v15.7c-18.92,7.09-25.08-13.62-36.97-12.3c-11.31,1.26-14.08,12.71-19.62,22.65
		c-9.46,17.02-23.64,34.4-43.07,35.72C76.64,98.8,63.69,90.98,51.2,84.37C38.73,77.75,23.98,72,10.84,77.16
		c-3.66,1.44-6.9,3.63-9.7,6.34V36.07c0-15.57,12.62-28.18,28.18-28.18h132.91C177.78,7.89,190.4,20.5,190.4,36.07z"/>
	<path class="st39" d="M190.4,35.77v15.7c-18.92,7.09-25.08-13.62-36.97-12.3c-11.31,1.26-14.08,12.71-19.62,22.65
		c-9.46,17.02-23.64,34.4-43.07,35.72C76.64,98.5,63.69,90.68,51.2,84.07c-12.47-6.62-27.22-12.37-40.37-7.21
		c-3.66,1.44-6.9,3.63-9.7,6.34V35.77c0-15.57,12.62-28.18,28.18-28.18h132.91C177.78,7.59,190.4,20.21,190.4,35.77z"/>
	<path class="st40" d="M190.4,35.47v15.7c-18.92,7.09-25.08-13.62-36.97-12.3c-11.31,1.26-14.08,12.71-19.62,22.65
		c-9.46,17.02-23.64,34.4-43.07,35.72C76.64,98.2,63.69,90.38,51.2,83.77c-12.47-6.62-27.22-12.37-40.37-7.21
		c-3.66,1.44-6.9,3.63-9.7,6.34V35.47c0-15.57,12.62-28.18,28.18-28.18h132.91C177.78,7.29,190.4,19.91,190.4,35.47z"/>
	<path class="st41" d="M190.4,35.18v15.7c-18.92,7.09-25.08-13.62-36.97-12.3c-11.31,1.26-14.08,12.71-19.62,22.65
		c-9.46,17.02-23.64,34.4-43.07,35.72C76.64,97.9,63.69,90.08,51.2,83.47c-12.47-6.62-27.22-12.37-40.37-7.21
		c-3.66,1.44-6.9,3.63-9.7,6.34V35.18c0-15.57,12.62-28.18,28.18-28.18h132.91C177.78,6.99,190.4,19.61,190.4,35.18z"/>
	<path class="st42" d="M190.4,34.88v15.7c-18.92,7.09-25.08-13.62-36.97-12.3c-11.31,1.26-14.08,12.71-19.62,22.65
		c-9.46,17.02-23.64,34.4-43.07,35.72C76.64,97.6,63.69,89.78,51.2,83.18c-12.47-6.62-27.22-12.37-40.37-7.21
		c-3.66,1.44-6.9,3.63-9.7,6.34V34.88c0-15.57,12.62-28.18,28.18-28.18h132.91C177.78,6.69,190.4,19.31,190.4,34.88z"/>
	<path class="st43" d="M190.4,34.58v15.7c-18.92,7.09-25.08-13.62-36.97-12.3c-11.31,1.26-14.08,12.71-19.62,22.65
		c-9.46,17.02-23.64,34.4-43.07,35.72c-14.09,0.96-27.04-6.86-39.53-13.47c-12.47-6.62-27.22-12.37-40.37-7.21
		c-3.66,1.44-6.9,3.63-9.7,6.34V34.58C1.13,19.01,13.75,6.4,29.32,6.4h132.91C177.78,6.4,190.4,19.01,190.4,34.58z"/>
	<path class="st44" d="M190.4,34.28v15.7c-18.92,7.09-25.08-13.62-36.97-12.3c-11.31,1.26-14.08,12.71-19.62,22.65
		c-9.46,17.02-23.64,34.4-43.07,35.72c-14.09,0.96-27.04-6.86-39.53-13.47c-12.47-6.62-27.22-12.37-40.37-7.21
		c-3.66,1.44-6.9,3.63-9.7,6.34V34.28C1.13,18.72,13.75,6.1,29.32,6.1h132.91C177.78,6.1,190.4,18.72,190.4,34.28z"/>
	<path class="st45" d="M190.4,33.99v15.7c-18.92,7.09-25.08-13.62-36.97-12.3c-11.31,1.26-14.08,12.71-19.62,22.65
		c-9.46,17.02-23.64,34.4-43.07,35.72c-14.09,0.96-27.04-6.86-39.53-13.47c-12.47-6.62-27.22-12.37-40.37-7.21
		c-3.66,1.44-6.9,3.63-9.7,6.34V33.99C1.13,18.42,13.75,5.8,29.32,5.8h132.91C177.78,5.8,190.4,18.42,190.4,33.99z"/>
	<path class="st46" d="M190.4,33.69v15.7c-18.92,7.09-25.08-13.62-36.97-12.3c-11.31,1.26-14.08,12.71-19.62,22.65
		c-9.46,17.02-23.64,34.4-43.07,35.72c-14.09,0.96-27.04-6.86-39.53-13.47c-12.47-6.62-27.22-12.37-40.37-7.21
		c-3.66,1.44-6.9,3.63-9.7,6.34V33.69C1.13,18.12,13.75,5.5,29.32,5.5h132.91C177.78,5.5,190.4,18.12,190.4,33.69z"/>
	<path class="st47" d="M190.4,33.39v15.7c-18.92,7.09-25.08-13.62-36.97-12.3c-11.31,1.26-14.08,12.71-19.62,22.65
		c-9.46,17.02-23.64,34.4-43.07,35.72c-14.09,0.96-27.04-6.86-39.53-13.47c-12.47-6.62-27.22-12.37-40.37-7.21
		c-3.66,1.44-6.9,3.63-9.7,6.34V33.39c0-15.57,12.62-28.18,28.18-28.18h132.91C177.78,5.21,190.4,17.82,190.4,33.39z"/>
	<path class="st48" d="M190.4,33.09v15.7c-18.92,7.09-25.08-13.62-36.97-12.3c-11.31,1.26-14.08,12.71-19.62,22.65
		c-9.46,17.02-23.64,34.4-43.07,35.72C76.64,95.82,63.69,88,51.2,81.39c-12.47-6.62-27.22-12.37-40.37-7.21
		c-3.66,1.44-6.9,3.63-9.7,6.34V33.09c0-15.57,12.62-28.18,28.18-28.18h132.91C177.78,4.91,190.4,17.52,190.4,33.09z"/>
	<path class="st49" d="M190.4,32.79v15.7c-18.92,7.09-25.08-13.62-36.97-12.3c-11.31,1.26-14.08,12.71-19.62,22.65
		c-9.46,17.02-23.64,34.4-43.07,35.72C76.64,95.52,63.69,87.7,51.2,81.09c-12.47-6.62-27.22-12.37-40.37-7.21
		c-3.66,1.44-6.9,3.63-9.7,6.34V32.79c0-15.57,12.62-28.18,28.18-28.18h132.91C177.78,4.61,190.4,17.23,190.4,32.79z"/>
	<path class="st50" d="M190.4,32.5v15.7c-18.92,7.09-25.08-13.62-36.97-12.3c-11.31,1.26-14.08,12.71-19.62,22.65
		c-9.46,17.02-23.64,34.4-43.07,35.72C76.64,95.22,63.69,87.4,51.2,80.79c-12.47-6.62-27.22-12.37-40.37-7.21
		c-3.66,1.44-6.9,3.63-9.7,6.34V32.5c0-15.57,12.62-28.18,28.18-28.18h132.91C177.78,4.31,190.4,16.93,190.4,32.5z"/>
	<path class="st51" d="M190.4,32.2v15.7c-18.92,7.09-25.08-13.62-36.97-12.3c-11.31,1.26-14.08,12.71-19.62,22.65
		c-9.46,17.02-23.64,34.4-43.07,35.72C76.64,94.92,63.69,87.1,51.2,80.49c-12.47-6.62-27.22-12.37-40.37-7.21
		c-3.66,1.44-6.9,3.63-9.7,6.34V32.2c0-15.57,12.62-28.18,28.18-28.18h132.91C177.78,4.01,190.4,16.63,190.4,32.2z"/>
	<path class="st52" d="M190.4,31.9v15.7c-18.92,7.09-25.08-13.62-36.97-12.3c-11.31,1.26-14.08,12.71-19.62,22.65
		c-9.46,17.02-23.64,34.4-43.07,35.72C76.64,94.62,63.69,86.81,51.2,80.2c-12.47-6.62-27.22-12.37-40.37-7.21
		c-3.66,1.44-6.9,3.63-9.7,6.34V31.9c0-15.57,12.62-28.18,28.18-28.18h132.91C177.78,3.72,190.4,16.33,190.4,31.9z"/>
</g>
<path class="st53" d="M190.4,31.9v15.7c-18.92,7.09-25.08-13.62-36.97-12.3c-11.31,1.26-14.08,12.71-19.62,22.65
	c-9.46,17.02-23.64,34.4-43.07,35.72C76.64,94.62,63.69,86.81,51.2,80.2c-12.47-6.62-27.22-12.37-40.37-7.21
	c-3.66,1.44-6.9,3.63-9.7,6.34V31.9c0-15.57,12.62-28.18,28.18-28.18h132.91C177.78,3.72,190.4,16.33,190.4,31.9z"/>
</svg>
