<?xml version="1.0" encoding="utf-8"?>
<!-- Generator: Adobe Illustrator 25.2.1, SVG Export Plug-In . SVG Version: 6.00 Build 0)  -->
<svg version="1.1" id="Layer_1" xmlns="http://www.w3.org/2000/svg" xmlns:xlink="http://www.w3.org/1999/xlink" x="0px" y="0px"
	 viewBox="0 0 191.4 115.18" style="enable-background:new 0 0 191.4 115.18;" xml:space="preserve">
<style type="text/css">
	.st0{opacity:0.3;}
	.st1{fill:#FFFFFF;}
	.st2{fill:#FDFDFD;}
	.st3{fill:#FBFBFB;}
	.st4{fill:#F9F9F9;}
	.st5{fill:#F7F7F7;}
	.st6{fill:#F5F5F5;}
	.st7{fill:#F3F3F3;}
	.st8{fill:#F1F1F1;}
	.st9{fill:#EFEFEF;}
	.st10{fill:#EDEDED;}
	.st11{fill:#EBEBEB;}
	.st12{fill:#E9E8E9;}
	.st13{fill:#E7E6E7;}
	.st14{fill:#E5E4E5;}
	.st15{fill:#E3E2E3;}
	.st16{fill:#E2E0E1;}
	.st17{fill:#E0DEDF;}
	.st18{fill:#DEDCDD;}
	.st19{fill:#DCDADB;}
	.st20{fill:#DAD8D9;}
	.st21{fill:#D8D6D7;}
	.st22{fill:#D6D5D5;}
	.st23{fill:#D4D3D3;}
	.st24{fill:#D2D1D1;}
	.st25{fill:#D0CFCF;}
	.st26{fill:#CECDCD;}
	.st27{fill:#CCCBCC;}
	.st28{fill:#CBC9CA;}
	.st29{fill:#C9C7C8;}
	.st30{fill:#C7C5C6;}
	.st31{fill:#C5C4C4;}
	.st32{fill:#C3C2C2;}
	.st33{fill:#C2C0C0;}
	.st34{fill:#C0BEBF;}
	.st35{fill:#BEBCBD;}
	.st36{fill:#BCBABB;}
	.st37{fill:#BAB9B9;}
	.st38{fill:#B8B7B7;}
	.st39{fill:#B6B5B5;}
	.st40{fill:#B4B3B3;}
	.st41{fill:#B3B1B2;}
	.st42{fill:#B1B0B0;}
	.st43{fill:#AFAEAE;}
	.st44{fill:#ADACAC;}
	.st45{fill:#ABAAAA;}
	.st46{fill:#A9A8A9;}
	.st47{fill:#A7A7A7;}
	.st48{fill:#A5A5A5;}
	.st49{fill:#A4A3A3;}
	.st50{fill:#A2A1A2;}
	.st51{fill:#A0A0A0;}
	.st52{fill:#9E9E9E;}
	.st53{fill:#64549F;}
</style>
<g class="st0">
	<path class="st1" d="M190.33,47.36v15.7c-18.92,7.09-25.08-13.62-36.97-12.3c-11.31,1.26-14.08,12.71-19.62,22.65
		c-9.46,17.02-23.64,34.4-43.07,35.72c-14.09,0.96-27.04-6.86-39.53-13.47c-12.47-6.62-27.22-12.37-40.37-7.21
		c-3.66,1.44-6.9,3.63-9.7,6.34V47.36c0-15.57,12.62-28.18,28.18-28.18h132.91C177.71,19.17,190.33,31.79,190.33,47.36z"/>
	<path class="st2" d="M190.33,47.06v15.7c-18.92,7.09-25.08-13.62-36.97-12.3c-11.31,1.26-14.08,12.71-19.62,22.65
		c-9.46,17.02-23.64,34.4-43.07,35.72c-14.09,0.96-27.04-6.86-39.53-13.47c-12.47-6.62-27.22-12.37-40.37-7.21
		c-3.66,1.44-6.9,3.63-9.7,6.34V47.06c0-15.57,12.62-28.18,28.18-28.18h132.91C177.71,18.88,190.33,31.49,190.33,47.06z"/>
	<path class="st3" d="M190.33,46.76v15.7c-18.92,7.09-25.08-13.62-36.97-12.3c-11.31,1.26-14.08,12.71-19.62,22.65
		c-9.46,17.02-23.64,34.4-43.07,35.72c-14.09,0.96-27.04-6.86-39.53-13.47c-12.47-6.62-27.22-12.37-40.37-7.21
		c-3.66,1.44-6.9,3.63-9.7,6.34V46.76c0-15.57,12.62-28.18,28.18-28.18h132.91C177.71,18.58,190.33,31.19,190.33,46.76z"/>
	<path class="st4" d="M190.33,46.46v15.7c-18.92,7.09-25.08-13.62-36.97-12.3c-11.31,1.26-14.08,12.71-19.62,22.65
		c-9.46,17.02-23.64,34.4-43.07,35.72c-14.09,0.96-27.04-6.86-39.53-13.47c-12.47-6.62-27.22-12.37-40.37-7.21
		c-3.66,1.44-6.9,3.63-9.7,6.34V46.46c0-15.57,12.62-28.18,28.18-28.18h132.91C177.71,18.28,190.33,30.9,190.33,46.46z"/>
	<path class="st5" d="M190.33,46.17v15.7c-18.92,7.09-25.08-13.62-36.97-12.3c-11.31,1.26-14.08,12.71-19.62,22.65
		c-9.46,17.02-23.64,34.4-43.07,35.72c-14.09,0.96-27.04-6.86-39.53-13.47c-12.47-6.62-27.22-12.37-40.37-7.21
		c-3.66,1.44-6.9,3.63-9.7,6.34V46.17c0-15.57,12.62-28.18,28.18-28.18h132.91C177.71,17.98,190.33,30.6,190.33,46.17z"/>
	<path class="st6" d="M190.33,45.87v15.7c-18.92,7.09-25.08-13.62-36.97-12.3c-11.31,1.26-14.08,12.71-19.62,22.65
		c-9.46,17.02-23.64,34.4-43.07,35.72c-14.09,0.96-27.04-6.86-39.53-13.47c-12.47-6.62-27.22-12.37-40.37-7.21
		c-3.66,1.44-6.9,3.63-9.7,6.34V45.87c0-15.57,12.62-28.18,28.18-28.18h132.91C177.71,17.68,190.33,30.3,190.33,45.87z"/>
	<path class="st7" d="M190.33,45.57v15.7c-18.92,7.09-25.08-13.62-36.97-12.3c-11.31,1.26-14.08,12.71-19.62,22.65
		c-9.46,17.02-23.64,34.4-43.07,35.72c-14.09,0.96-27.04-6.86-39.53-13.47c-12.47-6.62-27.22-12.37-40.37-7.21
		c-3.66,1.44-6.9,3.63-9.7,6.34V45.57c0-15.57,12.62-28.18,28.18-28.18h132.91C177.71,17.39,190.33,30,190.33,45.57z"/>
	<path class="st8" d="M190.33,45.27v15.7c-18.92,7.09-25.08-13.62-36.97-12.3c-11.31,1.26-14.08,12.71-19.62,22.65
		c-9.46,17.02-23.64,34.4-43.07,35.72c-14.09,0.96-27.04-6.86-39.53-13.47c-12.47-6.62-27.22-12.37-40.37-7.21
		c-3.66,1.44-6.9,3.63-9.7,6.34V45.27c0-15.57,12.62-28.18,28.18-28.18h132.91C177.71,17.09,190.33,29.71,190.33,45.27z"/>
	<path class="st9" d="M190.33,44.97v15.7c-18.92,7.09-25.08-13.62-36.97-12.3c-11.31,1.26-14.08,12.71-19.62,22.65
		c-9.46,17.02-23.64,34.4-43.07,35.72c-14.09,0.96-27.04-6.86-39.53-13.47c-12.47-6.62-27.22-12.37-40.37-7.21
		c-3.66,1.44-6.9,3.63-9.7,6.34V44.97c0-15.57,12.62-28.18,28.18-28.18h132.91C177.71,16.79,190.33,29.41,190.33,44.97z"/>
	<path class="st10" d="M190.33,44.68v15.7c-18.92,7.09-25.08-13.62-36.97-12.3c-11.31,1.26-14.08,12.71-19.62,22.65
		c-9.46,17.02-23.64,34.4-43.07,35.72c-14.09,0.96-27.04-6.86-39.53-13.47c-12.47-6.62-27.22-12.37-40.37-7.21
		c-3.66,1.44-6.9,3.63-9.7,6.34V44.68c0-15.57,12.62-28.18,28.18-28.18h132.91C177.71,16.49,190.33,29.11,190.33,44.68z"/>
	<path class="st11" d="M190.33,44.38v15.7c-18.92,7.09-25.08-13.62-36.97-12.3c-11.31,1.26-14.08,12.71-19.62,22.65
		c-9.46,17.02-23.64,34.4-43.07,35.72c-14.09,0.96-27.04-6.86-39.53-13.47c-12.47-6.62-27.22-12.37-40.37-7.21
		c-3.66,1.44-6.9,3.63-9.7,6.34V44.38c0-15.57,12.62-28.18,28.18-28.18h132.91C177.71,16.19,190.33,28.81,190.33,44.38z"/>
	<path class="st12" d="M190.33,44.08v15.7c-18.92,7.09-25.08-13.62-36.97-12.3c-11.31,1.26-14.08,12.71-19.62,22.65
		c-9.46,17.02-23.64,34.4-43.07,35.72c-14.09,0.96-27.04-6.86-39.53-13.47c-12.47-6.62-27.22-12.37-40.37-7.21
		c-3.66,1.44-6.9,3.63-9.7,6.34V44.08c0-15.57,12.62-28.18,28.18-28.18h132.91C177.71,15.9,190.33,28.51,190.33,44.08z"/>
	<path class="st13" d="M190.33,43.78v15.7c-18.92,7.09-25.08-13.62-36.97-12.3c-11.31,1.26-14.08,12.71-19.62,22.65
		c-9.46,17.02-23.64,34.4-43.07,35.72c-14.09,0.96-27.04-6.86-39.53-13.47c-12.47-6.62-27.22-12.37-40.37-7.21
		c-3.66,1.44-6.9,3.63-9.7,6.34V43.78c0-15.57,12.62-28.18,28.18-28.18h132.91C177.71,15.6,190.33,28.22,190.33,43.78z"/>
	<path class="st14" d="M190.33,43.49v15.7c-18.92,7.09-25.08-13.62-36.97-12.3c-11.31,1.26-14.08,12.71-19.62,22.65
		c-9.46,17.02-23.64,34.4-43.07,35.72c-14.09,0.96-27.04-6.86-39.53-13.47c-12.47-6.62-27.22-12.37-40.37-7.21
		c-3.66,1.44-6.9,3.63-9.7,6.34V43.49c0-15.57,12.62-28.18,28.18-28.18h132.91C177.71,15.3,190.33,27.92,190.33,43.49z"/>
	<path class="st15" d="M190.33,43.19v15.7c-18.92,7.09-25.08-13.62-36.97-12.3c-11.31,1.26-14.08,12.71-19.62,22.65
		c-9.46,17.02-23.64,34.4-43.07,35.72c-14.09,0.96-27.04-6.86-39.53-13.47c-12.47-6.62-27.22-12.37-40.37-7.21
		c-3.66,1.44-6.9,3.63-9.7,6.34V43.19C1.07,27.62,13.68,15,29.25,15h132.91C177.71,15,190.33,27.62,190.33,43.19z"/>
	<path class="st16" d="M190.33,42.89v15.7c-18.92,7.09-25.08-13.62-36.97-12.3c-11.31,1.26-14.08,12.71-19.62,22.65
		c-9.46,17.02-23.64,34.4-43.07,35.72c-14.09,0.96-27.04-6.86-39.53-13.47c-12.47-6.62-27.22-12.37-40.37-7.21
		c-3.66,1.44-6.9,3.63-9.7,6.34V42.89c0-15.57,12.62-28.18,28.18-28.18h132.91C177.71,14.71,190.33,27.32,190.33,42.89z"/>
	<path class="st17" d="M190.33,42.59v15.7c-18.92,7.09-25.08-13.62-36.97-12.3c-11.31,1.26-14.08,12.71-19.62,22.65
		c-9.46,17.02-23.64,34.4-43.07,35.72c-14.09,0.96-27.04-6.86-39.53-13.47c-12.47-6.62-27.22-12.37-40.37-7.21
		c-3.66,1.44-6.9,3.63-9.7,6.34V42.59c0-15.57,12.62-28.18,28.18-28.18h132.91C177.71,14.41,190.33,27.02,190.33,42.59z"/>
	<path class="st18" d="M190.33,42.29v15.7c-18.92,7.09-25.08-13.62-36.97-12.3c-11.31,1.26-14.08,12.71-19.62,22.65
		c-9.46,17.02-23.64,34.4-43.07,35.72c-14.09,0.96-27.04-6.86-39.53-13.47c-12.47-6.62-27.22-12.37-40.37-7.21
		c-3.66,1.44-6.9,3.63-9.7,6.34V42.29c0-15.57,12.62-28.18,28.18-28.18h132.91C177.71,14.11,190.33,26.73,190.33,42.29z"/>
	<path class="st19" d="M190.33,42v15.7c-18.92,7.09-25.08-13.62-36.97-12.3c-11.31,1.26-14.08,12.71-19.62,22.65
		c-9.46,17.02-23.64,34.4-43.07,35.72c-14.09,0.96-27.04-6.86-39.53-13.47c-12.47-6.62-27.22-12.37-40.37-7.21
		c-3.66,1.44-6.9,3.63-9.7,6.34V42c0-15.57,12.62-28.18,28.18-28.18h132.91C177.71,13.81,190.33,26.43,190.33,42z"/>
	<path class="st20" d="M190.33,41.7v15.7c-18.92,7.09-25.08-13.62-36.97-12.3c-11.31,1.26-14.08,12.71-19.62,22.65
		c-9.46,17.02-23.64,34.4-43.07,35.72c-14.09,0.96-27.04-6.86-39.53-13.47c-12.47-6.62-27.22-12.37-40.37-7.21
		c-3.66,1.44-6.9,3.63-9.7,6.34V41.7c0-15.57,12.62-28.18,28.18-28.18h132.91C177.71,13.51,190.33,26.13,190.33,41.7z"/>
	<path class="st21" d="M190.33,41.4v15.7c-18.92,7.09-25.08-13.62-36.97-12.3c-11.31,1.26-14.08,12.71-19.62,22.65
		c-9.46,17.02-23.64,34.4-43.07,35.72c-14.09,0.96-27.04-6.86-39.53-13.47c-12.47-6.62-27.22-12.37-40.37-7.21
		c-3.66,1.44-6.9,3.63-9.7,6.34V41.4c0-15.57,12.62-28.18,28.18-28.18h132.91C177.71,13.22,190.33,25.83,190.33,41.4z"/>
	<path class="st22" d="M190.33,41.1v15.7c-18.92,7.09-25.08-13.62-36.97-12.3c-11.31,1.26-14.08,12.71-19.62,22.65
		c-9.46,17.02-23.64,34.4-43.07,35.72c-14.09,0.96-27.04-6.86-39.53-13.47c-12.47-6.62-27.22-12.37-40.37-7.21
		c-3.66,1.44-6.9,3.63-9.7,6.34V41.1c0-15.57,12.62-28.18,28.18-28.18h132.91C177.71,12.92,190.33,25.53,190.33,41.1z"/>
	<path class="st23" d="M190.33,40.8v15.7c-18.92,7.09-25.08-13.62-36.97-12.3c-11.31,1.26-14.08,12.71-19.62,22.65
		c-9.46,17.02-23.64,34.4-43.07,35.72c-14.09,0.96-27.04-6.86-39.53-13.47c-12.47-6.62-27.22-12.37-40.37-7.21
		c-3.66,1.44-6.9,3.63-9.7,6.34V40.8c0-15.57,12.62-28.18,28.18-28.18h132.91C177.71,12.62,190.33,25.24,190.33,40.8z"/>
	<path class="st24" d="M190.33,40.51v15.7c-18.92,7.09-25.08-13.62-36.97-12.3c-11.31,1.26-14.08,12.71-19.62,22.65
		c-9.46,17.02-23.64,34.4-43.07,35.72c-14.09,0.96-27.04-6.86-39.53-13.47c-12.47-6.62-27.22-12.37-40.37-7.21
		c-3.66,1.44-6.9,3.63-9.7,6.34V40.51c0-15.57,12.62-28.18,28.18-28.18h132.91C177.71,12.32,190.33,24.94,190.33,40.51z"/>
	<path class="st25" d="M190.33,40.21v15.7c-18.92,7.09-25.08-13.62-36.97-12.3c-11.31,1.26-14.08,12.71-19.62,22.65
		c-9.46,17.02-23.64,34.4-43.07,35.72c-14.09,0.96-27.04-6.86-39.53-13.47c-12.47-6.62-27.22-12.37-40.37-7.21
		c-3.66,1.44-6.9,3.63-9.7,6.34V40.21c0-15.57,12.62-28.18,28.18-28.18h132.91C177.71,12.02,190.33,24.64,190.33,40.21z"/>
	<path class="st26" d="M190.33,39.91v15.7c-18.92,7.09-25.08-13.62-36.97-12.3c-11.31,1.26-14.08,12.71-19.62,22.65
		c-9.46,17.02-23.64,34.4-43.07,35.72c-14.09,0.96-27.04-6.86-39.53-13.47C38.67,81.59,23.91,75.84,10.77,81
		c-3.66,1.44-6.9,3.63-9.7,6.34V39.91c0-15.57,12.62-28.18,28.18-28.18h132.91C177.71,11.73,190.33,24.34,190.33,39.91z"/>
	<path class="st27" d="M190.33,39.61v15.7c-18.92,7.09-25.08-13.62-36.97-12.3c-11.31,1.26-14.08,12.71-19.62,22.65
		c-9.46,17.02-23.64,34.4-43.07,35.72c-14.09,0.96-27.04-6.86-39.53-13.47c-12.47-6.62-27.22-12.37-40.37-7.21
		c-3.66,1.44-6.9,3.63-9.7,6.34V39.61c0-15.57,12.62-28.18,28.18-28.18h132.91C177.71,11.43,190.33,24.05,190.33,39.61z"/>
	<path class="st28" d="M190.33,39.31v15.7c-18.92,7.09-25.08-13.62-36.97-12.3c-11.31,1.26-14.08,12.71-19.62,22.65
		c-9.46,17.02-23.64,34.4-43.07,35.72c-14.09,0.96-27.04-6.86-39.53-13.47c-12.47-6.62-27.22-12.37-40.37-7.21
		c-3.66,1.44-6.9,3.63-9.7,6.34V39.31c0-15.57,12.62-28.18,28.18-28.18h132.91C177.71,11.13,190.33,23.75,190.33,39.31z"/>
	<path class="st29" d="M190.33,39.02v15.7c-18.92,7.09-25.08-13.62-36.97-12.3c-11.31,1.26-14.08,12.71-19.62,22.65
		c-9.46,17.02-23.64,34.4-43.07,35.72c-14.09,0.96-27.04-6.86-39.53-13.47c-12.47-6.62-27.22-12.37-40.37-7.21
		c-3.66,1.44-6.9,3.63-9.7,6.34V39.02c0-15.57,12.62-28.18,28.18-28.18h132.91C177.71,10.83,190.33,23.45,190.33,39.02z"/>
	<path class="st30" d="M190.33,38.72v15.7c-18.92,7.09-25.08-13.62-36.97-12.3c-11.31,1.26-14.08,12.71-19.62,22.65
		c-9.46,17.02-23.64,34.4-43.07,35.72c-14.09,0.96-27.04-6.86-39.53-13.47c-12.47-6.62-27.22-12.37-40.37-7.21
		c-3.66,1.44-6.9,3.63-9.7,6.34V38.72c0-15.57,12.62-28.18,28.18-28.18h132.91C177.71,10.54,190.33,23.15,190.33,38.72z"/>
	<path class="st31" d="M190.33,38.42v15.7c-18.92,7.09-25.08-13.62-36.97-12.3c-11.31,1.26-14.08,12.71-19.62,22.65
		c-9.46,17.02-23.64,34.4-43.07,35.72c-14.09,0.96-27.04-6.86-39.53-13.47c-12.47-6.62-27.22-12.37-40.37-7.21
		c-3.66,1.44-6.9,3.63-9.7,6.34V38.42c0-15.57,12.62-28.18,28.18-28.18h132.91C177.71,10.24,190.33,22.85,190.33,38.42z"/>
	<path class="st32" d="M190.33,38.12v15.7c-18.92,7.09-25.08-13.62-36.97-12.3c-11.31,1.26-14.08,12.71-19.62,22.65
		c-9.46,17.02-23.64,34.4-43.07,35.72c-14.09,0.96-27.04-6.86-39.53-13.47c-12.47-6.62-27.22-12.37-40.37-7.21
		c-3.66,1.44-6.9,3.63-9.7,6.34V38.12c0-15.57,12.62-28.18,28.18-28.18h132.91C177.71,9.94,190.33,22.56,190.33,38.12z"/>
	<path class="st33" d="M190.33,37.83v15.7c-18.92,7.09-25.08-13.62-36.97-12.3c-11.31,1.26-14.08,12.71-19.62,22.65
		c-9.46,17.02-23.64,34.4-43.07,35.72c-14.09,0.96-27.04-6.86-39.53-13.47c-12.47-6.62-27.22-12.37-40.37-7.21
		c-3.66,1.44-6.9,3.63-9.7,6.34V37.83c0-15.57,12.62-28.18,28.18-28.18h132.91C177.71,9.64,190.33,22.26,190.33,37.83z"/>
	<path class="st34" d="M190.33,37.53v15.7c-18.92,7.09-25.08-13.62-36.97-12.3c-11.31,1.26-14.08,12.71-19.62,22.65
		c-9.46,17.02-23.64,34.4-43.07,35.72c-14.09,0.96-27.04-6.86-39.53-13.47c-12.47-6.62-27.22-12.37-40.37-7.21
		c-3.66,1.44-6.9,3.63-9.7,6.34V37.53c0-15.57,12.62-28.18,28.18-28.18h132.91C177.71,9.34,190.33,21.96,190.33,37.53z"/>
	<path class="st35" d="M190.33,37.23v15.7c-18.92,7.09-25.08-13.62-36.97-12.3c-11.31,1.26-14.08,12.71-19.62,22.65
		c-9.46,17.02-23.64,34.4-43.07,35.72c-14.09,0.96-27.04-6.86-39.53-13.47c-12.47-6.62-27.22-12.37-40.37-7.21
		c-3.66,1.44-6.9,3.63-9.7,6.34V37.23c0-15.57,12.62-28.18,28.18-28.18h132.91C177.71,9.05,190.33,21.66,190.33,37.23z"/>
	<path class="st36" d="M190.33,36.93v15.7c-18.92,7.09-25.08-13.62-36.97-12.3c-11.31,1.26-14.08,12.71-19.62,22.65
		C124.27,80,110.1,97.38,90.67,98.7c-14.09,0.96-27.04-6.86-39.53-13.47c-12.47-6.62-27.22-12.37-40.37-7.21
		c-3.66,1.44-6.9,3.63-9.7,6.34V36.93c0-15.57,12.62-28.18,28.18-28.18h132.91C177.71,8.75,190.33,21.36,190.33,36.93z"/>
	<path class="st37" d="M190.33,36.63v15.7c-18.92,7.09-25.08-13.62-36.97-12.3c-11.31,1.26-14.08,12.71-19.62,22.65
		c-9.46,17.02-23.64,34.4-43.07,35.72c-14.09,0.96-27.04-6.86-39.53-13.47c-12.47-6.62-27.22-12.37-40.37-7.21
		c-3.66,1.44-6.9,3.63-9.7,6.34V36.63c0-15.57,12.62-28.18,28.18-28.18h132.91C177.71,8.45,190.33,21.07,190.33,36.63z"/>
	<path class="st38" d="M190.33,36.34v15.7c-18.92,7.09-25.08-13.62-36.97-12.3c-11.31,1.26-14.08,12.71-19.62,22.65
		c-9.46,17.02-23.64,34.4-43.07,35.72c-14.09,0.96-27.04-6.86-39.53-13.47c-12.47-6.62-27.22-12.37-40.37-7.21
		c-3.66,1.44-6.9,3.63-9.7,6.34V36.34c0-15.57,12.62-28.18,28.18-28.18h132.91C177.71,8.15,190.33,20.77,190.33,36.34z"/>
	<path class="st39" d="M190.33,36.04v15.7c-18.92,7.09-25.08-13.62-36.97-12.3c-11.31,1.26-14.08,12.71-19.62,22.65
		c-9.46,17.02-23.64,34.4-43.07,35.72c-14.09,0.96-27.04-6.86-39.53-13.47c-12.47-6.62-27.22-12.37-40.37-7.21
		c-3.66,1.44-6.9,3.63-9.7,6.34V36.04c0-15.57,12.62-28.18,28.18-28.18h132.91C177.71,7.85,190.33,20.47,190.33,36.04z"/>
	<path class="st40" d="M190.33,35.74v15.7c-18.92,7.09-25.08-13.62-36.97-12.3c-11.31,1.26-14.08,12.71-19.62,22.65
		c-9.46,17.02-23.64,34.4-43.07,35.72c-14.09,0.96-27.04-6.86-39.53-13.47c-12.47-6.62-27.22-12.37-40.37-7.21
		c-3.66,1.44-6.9,3.63-9.7,6.34V35.74c0-15.57,12.62-28.18,28.18-28.18h132.91C177.71,7.56,190.33,20.17,190.33,35.74z"/>
	<path class="st41" d="M190.33,35.44v15.7c-18.92,7.09-25.08-13.62-36.97-12.3c-11.31,1.26-14.08,12.71-19.62,22.65
		c-9.46,17.02-23.64,34.4-43.07,35.72c-14.09,0.96-27.04-6.86-39.53-13.47c-12.47-6.62-27.22-12.37-40.37-7.21
		c-3.66,1.44-6.9,3.63-9.7,6.34V35.44c0-15.57,12.62-28.18,28.18-28.18h132.91C177.71,7.26,190.33,19.88,190.33,35.44z"/>
	<path class="st42" d="M190.33,35.14v15.7c-18.92,7.09-25.08-13.62-36.97-12.3c-11.31,1.26-14.08,12.71-19.62,22.65
		c-9.46,17.02-23.64,34.4-43.07,35.72c-14.09,0.96-27.04-6.86-39.53-13.47c-12.47-6.62-27.22-12.37-40.37-7.21
		c-3.66,1.44-6.9,3.63-9.7,6.34V35.14c0-15.57,12.62-28.18,28.18-28.18h132.91C177.71,6.96,190.33,19.58,190.33,35.14z"/>
	<path class="st43" d="M190.33,34.85v15.7c-18.92,7.09-25.08-13.62-36.97-12.3c-11.31,1.26-14.08,12.71-19.62,22.65
		c-9.46,17.02-23.64,34.4-43.07,35.72c-14.09,0.96-27.04-6.86-39.53-13.47c-12.47-6.62-27.22-12.37-40.37-7.21
		c-3.66,1.44-6.9,3.63-9.7,6.34V34.85c0-15.57,12.62-28.18,28.18-28.18h132.91C177.71,6.66,190.33,19.28,190.33,34.85z"/>
	<path class="st44" d="M190.33,34.55v15.7c-18.92,7.09-25.08-13.62-36.97-12.3c-11.31,1.26-14.08,12.71-19.62,22.65
		c-9.46,17.02-23.64,34.4-43.07,35.72c-14.09,0.96-27.04-6.86-39.53-13.47c-12.47-6.62-27.22-12.37-40.37-7.21
		c-3.66,1.44-6.9,3.63-9.7,6.34V34.55c0-15.57,12.62-28.18,28.18-28.18h132.91C177.71,6.36,190.33,18.98,190.33,34.55z"/>
	<path class="st45" d="M190.33,34.25v15.7c-18.92,7.09-25.08-13.62-36.97-12.3c-11.31,1.26-14.08,12.71-19.62,22.65
		c-9.46,17.02-23.64,34.4-43.07,35.72c-14.09,0.96-27.04-6.86-39.53-13.47c-12.47-6.62-27.22-12.37-40.37-7.21
		c-3.66,1.44-6.9,3.63-9.7,6.34V34.25c0-15.57,12.62-28.18,28.18-28.18h132.91C177.71,6.07,190.33,18.68,190.33,34.25z"/>
	<path class="st46" d="M190.33,33.95v15.7c-18.92,7.09-25.08-13.62-36.97-12.3c-11.31,1.26-14.08,12.71-19.62,22.65
		c-9.46,17.02-23.64,34.4-43.07,35.72c-14.09,0.96-27.04-6.86-39.53-13.47c-12.47-6.62-27.22-12.37-40.37-7.21
		c-3.66,1.44-6.9,3.63-9.7,6.34V33.95c0-15.57,12.62-28.18,28.18-28.18h132.91C177.71,5.77,190.33,18.39,190.33,33.95z"/>
	<path class="st47" d="M190.33,33.66v15.7c-18.92,7.09-25.08-13.62-36.97-12.3c-11.31,1.26-14.08,12.71-19.62,22.65
		c-9.46,17.02-23.64,34.4-43.07,35.72c-14.09,0.96-27.04-6.86-39.53-13.47c-12.47-6.62-27.22-12.37-40.37-7.21
		c-3.66,1.44-6.9,3.63-9.7,6.34V33.66c0-15.57,12.62-28.18,28.18-28.18h132.91C177.71,5.47,190.33,18.09,190.33,33.66z"/>
	<path class="st48" d="M190.33,33.36v15.7c-18.92,7.09-25.08-13.62-36.97-12.3c-11.31,1.26-14.08,12.71-19.62,22.65
		c-9.46,17.02-23.64,34.4-43.07,35.72c-14.09,0.96-27.04-6.86-39.53-13.47c-12.47-6.62-27.22-12.37-40.37-7.21
		c-3.66,1.44-6.9,3.63-9.7,6.34V33.36c0-15.57,12.62-28.18,28.18-28.18h132.91C177.71,5.17,190.33,17.79,190.33,33.36z"/>
	<path class="st49" d="M190.33,33.06v15.7c-18.92,7.09-25.08-13.62-36.97-12.3c-11.31,1.26-14.08,12.71-19.62,22.65
		c-9.46,17.02-23.64,34.4-43.07,35.72c-14.09,0.96-27.04-6.86-39.53-13.47c-12.47-6.62-27.22-12.37-40.37-7.21
		c-3.66,1.44-6.9,3.63-9.7,6.34V33.06c0-15.57,12.62-28.18,28.18-28.18h132.91C177.71,4.88,190.33,17.49,190.33,33.06z"/>
	<path class="st50" d="M190.33,32.76v15.7c-18.92,7.09-25.08-13.62-36.97-12.3c-11.31,1.26-14.08,12.71-19.62,22.65
		c-9.46,17.02-23.64,34.4-43.07,35.72c-14.09,0.96-27.04-6.86-39.53-13.47c-12.47-6.62-27.22-12.37-40.37-7.21
		c-3.66,1.44-6.9,3.63-9.7,6.34V32.76c0-15.57,12.62-28.18,28.18-28.18h132.91C177.71,4.58,190.33,17.19,190.33,32.76z"/>
	<path class="st51" d="M190.33,32.46v15.7c-18.92,7.09-25.08-13.62-36.97-12.3c-11.31,1.26-14.08,12.71-19.62,22.65
		c-9.46,17.02-23.64,34.4-43.07,35.72c-14.09,0.96-27.04-6.86-39.53-13.47c-12.47-6.62-27.22-12.37-40.37-7.21
		c-3.66,1.44-6.9,3.63-9.7,6.34V32.46c0-15.57,12.62-28.18,28.18-28.18h132.91C177.71,4.28,190.33,16.9,190.33,32.46z"/>
	<path class="st52" d="M190.33,32.17v15.7c-18.92,7.09-25.08-13.62-36.97-12.3c-11.31,1.26-14.08,12.71-19.62,22.65
		c-9.46,17.02-23.64,34.4-43.07,35.72c-14.09,0.96-27.04-6.86-39.53-13.47c-12.47-6.62-27.22-12.37-40.37-7.21
		c-3.66,1.44-6.9,3.63-9.7,6.34V32.17c0-15.57,12.62-28.18,28.18-28.18h132.91C177.71,3.98,190.33,16.6,190.33,32.17z"/>
</g>
<path class="st53" d="M190.33,32.17v15.7c-18.92,7.09-25.08-13.62-36.97-12.3c-11.31,1.26-14.08,12.71-19.62,22.65
	c-9.46,17.02-23.64,34.4-43.07,35.72c-14.09,0.96-27.04-6.86-39.53-13.47c-12.47-6.62-27.22-12.37-40.37-7.21
	c-3.66,1.44-6.9,3.63-9.7,6.34V32.17c0-15.57,12.62-28.18,28.18-28.18h132.91C177.71,3.98,190.33,16.6,190.33,32.17z"/>
</svg>
