<?xml version="1.0" encoding="utf-8"?>
<!-- Generator: Adobe Illustrator 25.2.1, SVG Export Plug-In . SVG Version: 6.00 Build 0)  -->
<svg version="1.1" id="Layer_1" xmlns="http://www.w3.org/2000/svg" xmlns:xlink="http://www.w3.org/1999/xlink" x="0px" y="0px"
	 viewBox="0 0 267.09 304.49" style="enable-background:new 0 0 267.09 304.49;" xml:space="preserve">
<style type="text/css">
	.st0{opacity:0.3;}
	.st1{opacity:0;fill:#FFFFFF;}
	.st2{opacity:7.518797e-03;fill:#FEFEFE;}
	.st3{opacity:0.015;fill:#FDFDFD;}
	.st4{opacity:0.0226;fill:#FCFCFC;}
	.st5{opacity:0.0301;fill:#FBFBFB;}
	.st6{opacity:0.0376;fill:#FAFAFA;}
	.st7{opacity:0.0451;fill:#F9F9F9;}
	.st8{opacity:0.0526;fill:#F8F8F8;}
	.st9{opacity:0.0602;fill:#F7F7F7;}
	.st10{opacity:0.0677;fill:#F6F6F6;}
	.st11{opacity:0.0752;fill:#F5F5F5;}
	.st12{opacity:0.0827;fill:#F4F4F4;}
	.st13{opacity:0.0902;fill:#F3F3F3;}
	.st14{opacity:0.0977;fill:#F2F2F2;}
	.st15{opacity:0.1053;fill:#F1F1F1;}
	.st16{opacity:0.1128;fill:#F0F0F0;}
	.st17{opacity:0.1203;fill:#EFEFEF;}
	.st18{opacity:0.1278;fill:#EEEEEE;}
	.st19{opacity:0.1353;fill:#EDEDED;}
	.st20{opacity:0.1429;fill:#ECECEC;}
	.st21{opacity:0.1504;fill:#EBEBEB;}
	.st22{opacity:0.1579;fill:#EAEAEA;}
	.st23{opacity:0.1654;fill:#E9E9E9;}
	.st24{opacity:0.1729;fill:#E8E8E8;}
	.st25{opacity:0.1805;fill:#E7E7E7;}
	.st26{opacity:0.188;fill:#E6E6E6;}
	.st27{opacity:0.1955;fill:#E5E5E5;}
	.st28{opacity:0.203;fill:#E4E4E4;}
	.st29{opacity:0.2105;fill:#E3E3E3;}
	.st30{opacity:0.218;fill:#E2E2E2;}
	.st31{opacity:0.2256;fill:#E1E1E1;}
	.st32{opacity:0.2331;fill:#E0E0E0;}
	.st33{opacity:0.2406;fill:#DFDFDF;}
	.st34{opacity:0.2481;fill:#DEDEDE;}
	.st35{opacity:0.2556;fill:#DDDDDD;}
	.st36{opacity:0.2632;fill:#DCDCDC;}
	.st37{opacity:0.2707;fill:#DBDBDB;}
	.st38{opacity:0.2782;fill:#DADADA;}
	.st39{opacity:0.2857;fill:#D9D9D9;}
	.st40{opacity:0.2932;fill:#D8D8D8;}
	.st41{opacity:0.3008;fill:#D7D7D7;}
	.st42{opacity:0.3083;fill:#D6D6D6;}
	.st43{opacity:0.3158;fill:#D5D5D5;}
	.st44{opacity:0.3233;fill:#D4D4D4;}
	.st45{opacity:0.3308;fill:#D3D3D3;}
	.st46{opacity:0.3383;fill:#D2D2D2;}
	.st47{opacity:0.3459;fill:#D1D1D1;}
	.st48{opacity:0.3534;fill:#D0D0D0;}
	.st49{opacity:0.3609;fill:#CFCFCF;}
	.st50{opacity:0.3684;fill:#CECECE;}
	.st51{opacity:0.3759;fill:#CDCDCD;}
	.st52{opacity:0.3835;fill:#CCCCCC;}
	.st53{opacity:0.391;fill:#CBCBCB;}
	.st54{opacity:0.3985;fill:#CACACA;}
	.st55{opacity:0.406;fill:#C9C9C9;}
	.st56{opacity:0.4135;fill:#C8C8C8;}
	.st57{opacity:0.4211;fill:#C7C7C7;}
	.st58{opacity:0.4286;fill:#C6C6C6;}
	.st59{opacity:0.4361;fill:#C5C5C5;}
	.st60{opacity:0.4436;fill:#C4C4C4;}
	.st61{opacity:0.4511;fill:#C3C3C3;}
	.st62{opacity:0.4586;fill:#C2C2C2;}
	.st63{opacity:0.4662;fill:#C1C1C1;}
	.st64{opacity:0.4737;fill:#C0C0C0;}
	.st65{opacity:0.4812;fill:#BFBFBF;}
	.st66{opacity:0.4887;fill:#BEBEBE;}
	.st67{opacity:0.4962;fill:#BDBDBD;}
	.st68{opacity:0.5038;fill:#BCBCBC;}
	.st69{opacity:0.5113;fill:#BBBBBB;}
	.st70{opacity:0.5188;fill:#BABABA;}
	.st71{opacity:0.5263;fill:#B9B9B9;}
	.st72{opacity:0.5338;fill:#B8B8B8;}
	.st73{opacity:0.5414;fill:#B7B7B7;}
	.st74{opacity:0.5489;fill:#B6B6B6;}
	.st75{opacity:0.5564;fill:#B5B5B5;}
	.st76{opacity:0.5639;fill:#B4B4B4;}
	.st77{opacity:0.5714;fill:#B3B3B3;}
	.st78{opacity:0.5789;fill:#B2B2B2;}
	.st79{opacity:0.5865;fill:#B1B1B1;}
	.st80{opacity:0.594;fill:#B0B0B0;}
	.st81{opacity:0.6015;fill:#AFAFAF;}
	.st82{opacity:0.609;fill:#AEAEAE;}
	.st83{opacity:0.6165;fill:#ADADAD;}
	.st84{opacity:0.6241;fill:#ACACAC;}
	.st85{opacity:0.6316;fill:#ABABAB;}
	.st86{opacity:0.6391;fill:#AAAAAA;}
	.st87{opacity:0.6466;fill:#A9A9A9;}
	.st88{opacity:0.6541;fill:#A8A8A8;}
	.st89{opacity:0.6617;fill:#A7A7A7;}
	.st90{opacity:0.6692;fill:#A6A6A6;}
	.st91{opacity:0.6767;fill:#A5A5A5;}
	.st92{opacity:0.6842;fill:#A4A4A4;}
	.st93{opacity:0.6917;fill:#A3A3A3;}
	.st94{opacity:0.6992;fill:#A2A2A2;}
	.st95{opacity:0.7068;fill:#A1A1A1;}
	.st96{opacity:0.7143;fill:#A0A0A0;}
	.st97{opacity:0.7218;fill:#9F9F9F;}
	.st98{opacity:0.7293;fill:#9E9E9E;}
	.st99{opacity:0.7368;fill:#9D9D9D;}
	.st100{opacity:0.7444;fill:#9C9C9C;}
	.st101{opacity:0.7519;fill:#9B9B9B;}
	.st102{opacity:0.7594;fill:#9A9A9A;}
	.st103{opacity:0.7669;fill:#999999;}
	.st104{opacity:0.7744;fill:#989898;}
	.st105{opacity:0.782;fill:#979797;}
	.st106{opacity:0.7895;fill:#969696;}
	.st107{opacity:0.797;fill:#959595;}
	.st108{opacity:0.8045;fill:#949494;}
	.st109{opacity:0.812;fill:#939393;}
	.st110{opacity:0.8195;fill:#929292;}
	.st111{opacity:0.8271;fill:#919191;}
	.st112{opacity:0.8346;fill:#909090;}
	.st113{opacity:0.8421;fill:#8F8F8F;}
	.st114{opacity:0.8496;fill:#8E8E8E;}
	.st115{opacity:0.8571;fill:#8D8D8D;}
	.st116{opacity:0.8647;fill:#8C8C8C;}
	.st117{opacity:0.8722;fill:#8B8B8B;}
	.st118{opacity:0.8797;fill:#8A8A8A;}
	.st119{opacity:0.8872;fill:#898989;}
	.st120{opacity:0.8947;fill:#888888;}
	.st121{opacity:0.9023;fill:#878787;}
	.st122{opacity:0.9098;fill:#868686;}
	.st123{opacity:0.9173;fill:#858585;}
	.st124{opacity:0.9248;fill:#848484;}
	.st125{opacity:0.9323;fill:#838383;}
	.st126{opacity:0.9398;fill:#828282;}
	.st127{opacity:0.9474;fill:#818181;}
	.st128{opacity:0.9549;fill:#808080;}
	.st129{opacity:0.9624;fill:#7F7F7F;}
	.st130{opacity:0.9699;fill:#7E7E7E;}
	.st131{opacity:0.9774;fill:#7D7D7D;}
	.st132{opacity:0.985;fill:#7C7C7C;}
	.st133{opacity:0.9925;fill:#7B7B7B;}
	.st134{fill:#7A7A7A;}
	.st135{fill:#FFFFFF;}
</style>
<g>
	<g class="st0">
		<path class="st1" d="M103.6,304.49c-16.86,0-30.58-13.72-30.58-30.58V103.6c0-16.86,13.72-30.58,30.58-30.58h132.91
			c16.86,0,30.58,13.72,30.58,30.58v170.31c0,16.86-13.72,30.58-30.58,30.58H103.6z"/>
		<path class="st2" d="M103.05,303.95c-16.86,0-30.58-13.72-30.58-30.58V103.05c0-16.86,13.72-30.58,30.58-30.58h132.91
			c16.86,0,30.58,13.72,30.58,30.58v170.31c0,16.86-13.72,30.58-30.58,30.58H103.05z"/>
		<path class="st3" d="M102.51,303.4c-16.86,0-30.58-13.72-30.58-30.58V102.5c0-16.86,13.72-30.58,30.58-30.58h132.91
			c16.86,0,30.58,13.72,30.58,30.58v170.31c0,16.86-13.72,30.58-30.58,30.58H102.51z"/>
		<path class="st4" d="M101.96,302.85c-16.86,0-30.58-13.72-30.58-30.58V101.96c0-16.86,13.72-30.58,30.58-30.58h132.91
			c16.86,0,30.58,13.72,30.58,30.58v170.31c0,16.86-13.72,30.58-30.58,30.58H101.96z"/>
		<path class="st5" d="M101.41,302.3c-16.86,0-30.58-13.72-30.58-30.58V101.41c0-16.86,13.72-30.58,30.58-30.58h132.91
			c16.86,0,30.58,13.72,30.58,30.58v170.31c0,16.86-13.72,30.58-30.58,30.58H101.41z"/>
		<path class="st6" d="M100.86,301.75c-16.86,0-30.58-13.72-30.58-30.58V100.86C70.28,84,84,70.28,100.86,70.28h132.91
			c16.86,0,30.58,13.72,30.58,30.58v170.31c0,16.86-13.72,30.58-30.58,30.58H100.86z"/>
		<path class="st7" d="M100.31,301.2c-16.86,0-30.58-13.72-30.58-30.58V100.31c0-16.86,13.72-30.58,30.58-30.58h132.91
			c16.86,0,30.58,13.72,30.58,30.58v170.31c0,16.86-13.72,30.58-30.58,30.58H100.31z"/>
		<path class="st8" d="M99.76,300.65c-16.86,0-30.58-13.72-30.58-30.58V99.76c0-16.86,13.72-30.58,30.58-30.58h132.91
			c16.86,0,30.58,13.72,30.58,30.58v170.31c0,16.86-13.72,30.58-30.58,30.58H99.76z"/>
		<path class="st9" d="M99.21,300.1c-16.86,0-30.58-13.72-30.58-30.58V99.21c0-16.86,13.72-30.58,30.58-30.58h132.91
			c16.86,0,30.58,13.72,30.58,30.58v170.31c0,16.86-13.72,30.58-30.58,30.58H99.21z"/>
		<path class="st10" d="M98.66,299.55c-16.86,0-30.58-13.72-30.58-30.58V98.66c0-16.86,13.72-30.58,30.58-30.58h132.91
			c16.86,0,30.58,13.72,30.58,30.58v170.31c0,16.86-13.72,30.58-30.58,30.58H98.66z"/>
		<path class="st11" d="M98.11,299c-16.86,0-30.58-13.72-30.58-30.58V98.11c0-16.86,13.72-30.58,30.58-30.58h132.91
			c16.86,0,30.58,13.72,30.58,30.58v170.31c0,16.86-13.72,30.58-30.58,30.58H98.11z"/>
		<path class="st12" d="M97.56,298.46c-16.86,0-30.58-13.72-30.58-30.58V97.56c0-16.86,13.72-30.58,30.58-30.58h132.91
			c16.86,0,30.58,13.72,30.58,30.58v170.31c0,16.86-13.72,30.58-30.58,30.58H97.56z"/>
		<path class="st13" d="M97.01,297.91c-16.86,0-30.58-13.72-30.58-30.58V97.01c0-16.86,13.72-30.58,30.58-30.58h132.91
			c16.86,0,30.58,13.72,30.58,30.58v170.31c0,16.86-13.72,30.58-30.58,30.58H97.01z"/>
		<path class="st14" d="M96.47,297.36c-16.86,0-30.58-13.72-30.58-30.58V96.47c0-16.86,13.72-30.58,30.58-30.58h132.91
			c16.86,0,30.58,13.72,30.58,30.58v170.31c0,16.86-13.72,30.58-30.58,30.58H96.47z"/>
		<path class="st15" d="M95.92,296.81c-16.86,0-30.58-13.72-30.58-30.58V95.92c0-16.86,13.72-30.58,30.58-30.58h132.91
			c16.86,0,30.58,13.72,30.58,30.58v170.31c0,16.86-13.72,30.58-30.58,30.58H95.92z"/>
		<path class="st16" d="M95.37,296.26c-16.86,0-30.58-13.72-30.58-30.58V95.37c0-16.86,13.72-30.58,30.58-30.58h132.91
			c16.86,0,30.58,13.72,30.58,30.58v170.31c0,16.86-13.72,30.58-30.58,30.58H95.37z"/>
		<path class="st17" d="M94.82,295.71c-16.86,0-30.58-13.72-30.58-30.58V94.82c0-16.86,13.72-30.58,30.58-30.58h132.91
			c16.86,0,30.58,13.72,30.58,30.58v170.31c0,16.86-13.72,30.58-30.58,30.58H94.82z"/>
		<path class="st18" d="M94.27,295.16c-16.86,0-30.58-13.72-30.58-30.58V94.27c0-16.86,13.72-30.58,30.58-30.58h132.91
			c16.86,0,30.58,13.72,30.58,30.58v170.31c0,16.86-13.72,30.58-30.58,30.58H94.27z"/>
		<path class="st19" d="M93.72,294.61c-16.86,0-30.58-13.72-30.58-30.58V93.72c0-16.86,13.72-30.58,30.58-30.58h132.91
			c16.86,0,30.58,13.72,30.58,30.58v170.31c0,16.86-13.72,30.58-30.58,30.58H93.72z"/>
		<path class="st20" d="M93.17,294.06c-16.86,0-30.58-13.72-30.58-30.58V93.17c0-16.86,13.72-30.58,30.58-30.58h132.91
			c16.86,0,30.58,13.72,30.58,30.58v170.31c0,16.86-13.72,30.58-30.58,30.58H93.17z"/>
		<path class="st21" d="M92.62,293.51c-16.86,0-30.58-13.72-30.58-30.58V92.62c0-16.86,13.72-30.58,30.58-30.58h132.91
			c16.86,0,30.58,13.72,30.58,30.58v170.31c0,16.86-13.72,30.58-30.58,30.58H92.62z"/>
		<path class="st22" d="M92.07,292.96c-16.86,0-30.58-13.72-30.58-30.58V92.07c0-16.86,13.72-30.58,30.58-30.58h132.91
			c16.86,0,30.58,13.72,30.58,30.58v170.31c0,16.86-13.72,30.58-30.58,30.58H92.07z"/>
		<path class="st23" d="M91.52,292.42c-16.86,0-30.58-13.72-30.58-30.58V91.52c0-16.86,13.72-30.58,30.58-30.58h132.91
			c16.86,0,30.58,13.72,30.58,30.58v170.31c0,16.86-13.72,30.58-30.58,30.58H91.52z"/>
		<path class="st24" d="M90.98,291.87c-16.86,0-30.58-13.72-30.58-30.58V90.97c0-16.86,13.72-30.58,30.58-30.58h132.91
			c16.86,0,30.58,13.72,30.58,30.58v170.31c0,16.86-13.72,30.58-30.58,30.58H90.98z"/>
		<path class="st25" d="M90.43,291.32c-16.86,0-30.58-13.72-30.58-30.58V90.43c0-16.86,13.72-30.58,30.58-30.58h132.91
			c16.86,0,30.58,13.72,30.58,30.58v170.31c0,16.86-13.72,30.58-30.58,30.58H90.43z"/>
		<path class="st26" d="M89.88,290.77c-16.86,0-30.58-13.72-30.58-30.58V89.88c0-16.86,13.72-30.58,30.58-30.58h132.91
			c16.86,0,30.58,13.72,30.58,30.58v170.31c0,16.86-13.72,30.58-30.58,30.58H89.88z"/>
		<path class="st27" d="M89.33,290.22c-16.86,0-30.58-13.72-30.58-30.58V89.33c0-16.86,13.72-30.58,30.58-30.58h132.91
			c16.86,0,30.58,13.72,30.58,30.58v170.31c0,16.86-13.72,30.58-30.58,30.58H89.33z"/>
		<path class="st28" d="M88.78,289.67c-16.86,0-30.58-13.72-30.58-30.58V88.78c0-16.86,13.72-30.58,30.58-30.58h132.91
			c16.86,0,30.58,13.72,30.58,30.58v170.31c0,16.86-13.72,30.58-30.58,30.58H88.78z"/>
		<path class="st29" d="M88.23,289.12c-16.86,0-30.58-13.72-30.58-30.58V88.23c0-16.86,13.72-30.58,30.58-30.58h132.91
			c16.86,0,30.58,13.72,30.58,30.58v170.31c0,16.86-13.72,30.58-30.58,30.58H88.23z"/>
		<path class="st30" d="M87.68,288.57c-16.86,0-30.58-13.72-30.58-30.58V87.68c0-16.86,13.72-30.58,30.58-30.58h132.91
			c16.86,0,30.58,13.72,30.58,30.58v170.31c0,16.86-13.72,30.58-30.58,30.58H87.68z"/>
		<path class="st31" d="M87.13,288.02c-16.86,0-30.58-13.72-30.58-30.58V87.13c0-16.86,13.72-30.58,30.58-30.58h132.91
			c16.86,0,30.58,13.72,30.58,30.58v170.31c0,16.86-13.72,30.58-30.58,30.58H87.13z"/>
		<path class="st32" d="M86.58,287.47C69.72,287.47,56,273.76,56,256.9V86.58C56,69.72,69.72,56,86.58,56h132.91
			c16.86,0,30.58,13.72,30.58,30.58V256.9c0,16.86-13.72,30.58-30.58,30.58H86.58z"/>
		<path class="st33" d="M86.03,286.92c-16.86,0-30.58-13.72-30.58-30.58V86.03c0-16.86,13.72-30.58,30.58-30.58h132.91
			c16.86,0,30.58,13.72,30.58,30.58v170.31c0,16.86-13.72,30.58-30.58,30.58H86.03z"/>
		<path class="st34" d="M85.48,286.38c-16.86,0-30.58-13.72-30.58-30.58V85.48c0-16.86,13.72-30.58,30.58-30.58h132.91
			c16.86,0,30.58,13.72,30.58,30.58V255.8c0,16.86-13.72,30.58-30.58,30.58H85.48z"/>
		<path class="st35" d="M84.94,285.83c-16.86,0-30.58-13.72-30.58-30.58V84.93c0-16.86,13.72-30.58,30.58-30.58h132.91
			c16.86,0,30.58,13.72,30.58,30.58v170.31c0,16.86-13.72,30.58-30.58,30.58H84.94z"/>
		<path class="st36" d="M84.39,285.28c-16.86,0-30.58-13.72-30.58-30.58V84.39c0-16.86,13.72-30.58,30.58-30.58h132.91
			c16.86,0,30.58,13.72,30.58,30.58V254.7c0,16.86-13.72,30.58-30.58,30.58H84.39z"/>
		<path class="st37" d="M83.84,284.73c-16.86,0-30.58-13.72-30.58-30.58V83.84c0-16.86,13.72-30.58,30.58-30.58h132.91
			c16.86,0,30.58,13.72,30.58,30.58v170.31c0,16.86-13.72,30.58-30.58,30.58H83.84z"/>
		<path class="st38" d="M83.29,284.18c-16.86,0-30.58-13.72-30.58-30.58V83.29c0-16.86,13.72-30.58,30.58-30.58H216.2
			c16.86,0,30.58,13.72,30.58,30.58V253.6c0,16.86-13.72,30.58-30.58,30.58H83.29z"/>
		<path class="st39" d="M82.74,283.63c-16.86,0-30.58-13.72-30.58-30.58V82.74c0-16.86,13.72-30.58,30.58-30.58h132.91
			c16.86,0,30.58,13.72,30.58,30.58v170.31c0,16.86-13.72,30.58-30.58,30.58H82.74z"/>
		<path class="st40" d="M82.19,283.08c-16.86,0-30.58-13.72-30.58-30.58V82.19c0-16.86,13.72-30.58,30.58-30.58H215.1
			c16.86,0,30.58,13.72,30.58,30.58V252.5c0,16.86-13.72,30.58-30.58,30.58H82.19z"/>
		<path class="st41" d="M81.64,282.53c-16.86,0-30.58-13.72-30.58-30.58V81.64c0-16.86,13.72-30.58,30.58-30.58h132.91
			c16.86,0,30.58,13.72,30.58,30.58v170.31c0,16.86-13.72,30.58-30.58,30.58H81.64z"/>
		<path class="st42" d="M81.09,281.98c-16.86,0-30.58-13.72-30.58-30.58V81.09c0-16.86,13.72-30.58,30.58-30.58H214
			c16.86,0,30.58,13.72,30.58,30.58v170.31c0,16.86-13.72,30.58-30.58,30.58H81.09z"/>
		<path class="st43" d="M80.54,281.43c-16.86,0-30.58-13.72-30.58-30.58V80.54c0-16.86,13.72-30.58,30.58-30.58h132.91
			c16.86,0,30.58,13.72,30.58,30.58v170.31c0,16.86-13.72,30.58-30.58,30.58H80.54z"/>
		<path class="st44" d="M79.99,280.89c-16.86,0-30.58-13.72-30.58-30.58V79.99c0-16.86,13.72-30.58,30.58-30.58H212.9
			c16.86,0,30.58,13.72,30.58,30.58v170.31c0,16.86-13.72,30.58-30.58,30.58H79.99z"/>
		<path class="st45" d="M79.44,280.34c-16.86,0-30.58-13.72-30.58-30.58V79.44c0-16.86,13.72-30.58,30.58-30.58h132.91
			c16.86,0,30.58,13.72,30.58,30.58v170.31c0,16.86-13.72,30.58-30.58,30.58H79.44z"/>
		<path class="st46" d="M78.9,279.79c-16.86,0-30.58-13.72-30.58-30.58V78.9c0-16.86,13.72-30.58,30.58-30.58H211.8
			c16.86,0,30.58,13.72,30.58,30.58v170.31c0,16.86-13.72,30.58-30.58,30.58H78.9z"/>
		<path class="st47" d="M78.35,279.24c-16.86,0-30.58-13.72-30.58-30.58V78.35c0-16.86,13.72-30.58,30.58-30.58h132.91
			c16.86,0,30.58,13.72,30.58,30.58v170.31c0,16.86-13.72,30.58-30.58,30.58H78.35z"/>
		<path class="st48" d="M77.8,278.69c-16.86,0-30.58-13.72-30.58-30.58V77.8c0-16.86,13.72-30.58,30.58-30.58H210.7
			c16.86,0,30.58,13.72,30.58,30.58v170.31c0,16.86-13.72,30.58-30.58,30.58H77.8z"/>
		<path class="st49" d="M77.25,278.14c-16.86,0-30.58-13.72-30.58-30.58V77.25c0-16.86,13.72-30.58,30.58-30.58h132.91
			c16.86,0,30.58,13.72,30.58,30.58v170.31c0,16.86-13.72,30.58-30.58,30.58H77.25z"/>
		<path class="st50" d="M76.7,277.59c-16.86,0-30.58-13.72-30.58-30.58V76.7c0-16.86,13.72-30.58,30.58-30.58h132.91
			c16.86,0,30.58,13.72,30.58,30.58v170.31c0,16.86-13.72,30.58-30.58,30.58H76.7z"/>
		<path class="st51" d="M76.15,277.04c-16.86,0-30.58-13.72-30.58-30.58V76.15c0-16.86,13.72-30.58,30.58-30.58h132.91
			c16.86,0,30.58,13.72,30.58,30.58v170.31c0,16.86-13.72,30.58-30.58,30.58H76.15z"/>
		<path class="st52" d="M75.6,276.49c-16.86,0-30.58-13.72-30.58-30.58V75.6c0-16.86,13.72-30.58,30.58-30.58h132.91
			c16.86,0,30.58,13.72,30.58,30.58v170.31c0,16.86-13.72,30.58-30.58,30.58H75.6z"/>
		<path class="st53" d="M75.05,275.94c-16.86,0-30.58-13.72-30.58-30.58V75.05c0-16.86,13.72-30.58,30.58-30.58h132.91
			c16.86,0,30.58,13.72,30.58,30.58v170.31c0,16.86-13.72,30.58-30.58,30.58H75.05z"/>
		<path class="st54" d="M74.5,275.39c-16.86,0-30.58-13.72-30.58-30.58V74.5c0-16.86,13.72-30.58,30.58-30.58h132.91
			c16.86,0,30.58,13.72,30.58,30.58v170.31c0,16.86-13.72,30.58-30.58,30.58H74.5z"/>
		<path class="st55" d="M73.95,274.85c-16.86,0-30.58-13.72-30.58-30.58V73.95c0-16.86,13.72-30.58,30.58-30.58h132.91
			c16.86,0,30.58,13.72,30.58,30.58v170.31c0,16.86-13.72,30.58-30.58,30.58H73.95z"/>
		<path class="st56" d="M73.41,274.3c-16.86,0-30.58-13.72-30.58-30.58V73.4c0-16.86,13.72-30.58,30.58-30.58h132.91
			c16.86,0,30.58,13.72,30.58,30.58v170.31c0,16.86-13.72,30.58-30.58,30.58H73.41z"/>
		<path class="st57" d="M72.86,273.75c-16.86,0-30.58-13.72-30.58-30.58V72.86C42.28,56,56,42.28,72.86,42.28h132.91
			c16.86,0,30.58,13.72,30.58,30.58v170.31c0,16.86-13.72,30.58-30.58,30.58H72.86z"/>
		<path class="st58" d="M72.31,273.2c-16.86,0-30.58-13.72-30.58-30.58V72.31c0-16.86,13.72-30.58,30.58-30.58h132.91
			c16.86,0,30.58,13.72,30.58,30.58v170.31c0,16.86-13.72,30.58-30.58,30.58H72.31z"/>
		<path class="st59" d="M71.76,272.65c-16.86,0-30.58-13.72-30.58-30.58V71.76c0-16.86,13.72-30.58,30.58-30.58h132.91
			c16.86,0,30.58,13.72,30.58,30.58v170.31c0,16.86-13.72,30.58-30.58,30.58H71.76z"/>
		<path class="st60" d="M71.21,272.1c-16.86,0-30.58-13.72-30.58-30.58V71.21c0-16.86,13.72-30.58,30.58-30.58h132.91
			c16.86,0,30.58,13.72,30.58,30.58v170.31c0,16.86-13.72,30.58-30.58,30.58H71.21z"/>
		<path class="st61" d="M70.66,271.55c-16.86,0-30.58-13.72-30.58-30.58V70.66c0-16.86,13.72-30.58,30.58-30.58h132.91
			c16.86,0,30.58,13.72,30.58,30.58v170.31c0,16.86-13.72,30.58-30.58,30.58H70.66z"/>
		<path class="st62" d="M70.11,271c-16.86,0-30.58-13.72-30.58-30.58V70.11c0-16.86,13.72-30.58,30.58-30.58h132.91
			c16.86,0,30.58,13.72,30.58,30.58v170.31c0,16.86-13.72,30.58-30.58,30.58H70.11z"/>
		<path class="st63" d="M69.56,270.45c-16.86,0-30.58-13.72-30.58-30.58V69.56c0-16.86,13.72-30.58,30.58-30.58h132.91
			c16.86,0,30.58,13.72,30.58,30.58v170.31c0,16.86-13.72,30.58-30.58,30.58H69.56z"/>
		<path class="st64" d="M69.01,269.9c-16.86,0-30.58-13.72-30.58-30.58V69.01c0-16.86,13.72-30.58,30.58-30.58h132.91
			c16.86,0,30.58,13.72,30.58,30.58v170.31c0,16.86-13.72,30.58-30.58,30.58H69.01z"/>
		<path class="st65" d="M68.46,269.35c-16.86,0-30.58-13.72-30.58-30.58V68.46c0-16.86,13.72-30.58,30.58-30.58h132.91
			c16.86,0,30.58,13.72,30.58,30.58v170.31c0,16.86-13.72,30.58-30.58,30.58H68.46z"/>
		<path class="st66" d="M67.91,268.81c-16.86,0-30.58-13.72-30.58-30.58V67.91c0-16.86,13.72-30.58,30.58-30.58h132.91
			c16.86,0,30.58,13.72,30.58,30.58v170.31c0,16.86-13.72,30.58-30.58,30.58H67.91z"/>
		<path class="st67" d="M67.37,268.26c-16.86,0-30.58-13.72-30.58-30.58V67.36c0-16.86,13.72-30.58,30.58-30.58h132.91
			c16.86,0,30.58,13.72,30.58,30.58v170.31c0,16.86-13.72,30.58-30.58,30.58H67.37z"/>
		<path class="st68" d="M66.82,267.71c-16.86,0-30.58-13.72-30.58-30.58V66.82c0-16.86,13.72-30.58,30.58-30.58h132.91
			c16.86,0,30.58,13.72,30.58,30.58v170.31c0,16.86-13.72,30.58-30.58,30.58H66.82z"/>
		<path class="st69" d="M66.27,267.16c-16.86,0-30.58-13.72-30.58-30.58V66.27c0-16.86,13.72-30.58,30.58-30.58h132.91
			c16.86,0,30.58,13.72,30.58,30.58v170.31c0,16.86-13.72,30.58-30.58,30.58H66.27z"/>
		<path class="st70" d="M65.72,266.61c-16.86,0-30.58-13.72-30.58-30.58V65.72c0-16.86,13.72-30.58,30.58-30.58h132.91
			c16.86,0,30.58,13.72,30.58,30.58v170.31c0,16.86-13.72,30.58-30.58,30.58H65.72z"/>
		<path class="st71" d="M65.17,266.06c-16.86,0-30.58-13.72-30.58-30.58V65.17c0-16.86,13.72-30.58,30.58-30.58h132.91
			c16.86,0,30.58,13.72,30.58,30.58v170.31c0,16.86-13.72,30.58-30.58,30.58H65.17z"/>
		<path class="st72" d="M64.62,265.51c-16.86,0-30.58-13.72-30.58-30.58V64.62c0-16.86,13.72-30.58,30.58-30.58h132.91
			c16.86,0,30.58,13.72,30.58,30.58v170.31c0,16.86-13.72,30.58-30.58,30.58H64.62z"/>
		<path class="st73" d="M64.07,264.96c-16.86,0-30.58-13.72-30.58-30.58V64.07c0-16.86,13.72-30.58,30.58-30.58h132.91
			c16.86,0,30.58,13.72,30.58,30.58v170.31c0,16.86-13.72,30.58-30.58,30.58H64.07z"/>
		<path class="st74" d="M63.52,264.41c-16.86,0-30.58-13.72-30.58-30.58V63.52c0-16.86,13.72-30.58,30.58-30.58h132.91
			c16.86,0,30.58,13.72,30.58,30.58v170.31c0,16.86-13.72,30.58-30.58,30.58H63.52z"/>
		<path class="st75" d="M62.97,263.86c-16.86,0-30.58-13.72-30.58-30.58V62.97c0-16.86,13.72-30.58,30.58-30.58h132.91
			c16.86,0,30.58,13.72,30.58,30.58v170.31c0,16.86-13.72,30.58-30.58,30.58H62.97z"/>
		<path class="st76" d="M62.42,263.32c-16.86,0-30.58-13.72-30.58-30.58V62.42c0-16.86,13.72-30.58,30.58-30.58h132.91
			c16.86,0,30.58,13.72,30.58,30.58v170.31c0,16.86-13.72,30.58-30.58,30.58H62.42z"/>
		<path class="st77" d="M61.87,262.77c-16.86,0-30.58-13.72-30.58-30.58V61.87c0-16.86,13.72-30.58,30.58-30.58h132.91
			c16.86,0,30.58,13.72,30.58,30.58v170.31c0,16.86-13.72,30.58-30.58,30.58H61.87z"/>
		<path class="st78" d="M61.33,262.22c-16.86,0-30.58-13.72-30.58-30.58V61.33c0-16.86,13.72-30.58,30.58-30.58h132.91
			c16.86,0,30.58,13.72,30.58,30.58v170.31c0,16.86-13.72,30.58-30.58,30.58H61.33z"/>
		<path class="st79" d="M60.78,261.67c-16.86,0-30.58-13.72-30.58-30.58V60.78c0-16.86,13.72-30.58,30.58-30.58h132.91
			c16.86,0,30.58,13.72,30.58,30.58v170.31c0,16.86-13.72,30.58-30.58,30.58H60.78z"/>
		<path class="st80" d="M60.23,261.12c-16.86,0-30.58-13.72-30.58-30.58V60.23c0-16.86,13.72-30.58,30.58-30.58h132.91
			c16.86,0,30.58,13.72,30.58,30.58v170.31c0,16.86-13.72,30.58-30.58,30.58H60.23z"/>
		<path class="st81" d="M59.68,260.57c-16.86,0-30.58-13.72-30.58-30.58V59.68c0-16.86,13.72-30.58,30.58-30.58h132.91
			c16.86,0,30.58,13.72,30.58,30.58v170.31c0,16.86-13.72,30.58-30.58,30.58H59.68z"/>
		<path class="st82" d="M59.13,260.02c-16.86,0-30.58-13.72-30.58-30.58V59.13c0-16.86,13.72-30.58,30.58-30.58h132.91
			c16.86,0,30.58,13.72,30.58,30.58v170.31c0,16.86-13.72,30.58-30.58,30.58H59.13z"/>
		<path class="st83" d="M58.58,259.47c-16.86,0-30.58-13.72-30.58-30.58V58.58C28,41.72,41.72,28,58.58,28h132.91
			c16.86,0,30.58,13.72,30.58,30.58v170.31c0,16.86-13.72,30.58-30.58,30.58H58.58z"/>
		<path class="st84" d="M58.03,258.92c-16.86,0-30.58-13.72-30.58-30.58V58.03c0-16.86,13.72-30.58,30.58-30.58h132.91
			c16.86,0,30.58,13.72,30.58,30.58v170.31c0,16.86-13.72,30.58-30.58,30.58H58.03z"/>
		<path class="st85" d="M57.48,258.37c-16.86,0-30.58-13.72-30.58-30.58V57.48c0-16.86,13.72-30.58,30.58-30.58h132.91
			c16.86,0,30.58,13.72,30.58,30.58V227.8c0,16.86-13.72,30.58-30.58,30.58H57.48z"/>
		<path class="st86" d="M56.93,257.82c-16.86,0-30.58-13.72-30.58-30.58V56.93c0-16.86,13.72-30.58,30.58-30.58h132.91
			c16.86,0,30.58,13.72,30.58,30.58v170.31c0,16.86-13.72,30.58-30.58,30.58H56.93z"/>
		<path class="st87" d="M56.38,257.28c-16.86,0-30.58-13.72-30.58-30.58V56.38c0-16.86,13.72-30.58,30.58-30.58h132.91
			c16.86,0,30.58,13.72,30.58,30.58V226.7c0,16.86-13.72,30.58-30.58,30.58H56.38z"/>
		<path class="st88" d="M55.84,256.73c-16.86,0-30.58-13.72-30.58-30.58V55.83c0-16.86,13.72-30.58,30.58-30.58h132.91
			c16.86,0,30.58,13.72,30.58,30.58v170.31c0,16.86-13.72,30.58-30.58,30.58H55.84z"/>
		<path class="st89" d="M55.29,256.18c-16.86,0-30.58-13.72-30.58-30.58V55.29c0-16.86,13.72-30.58,30.58-30.58h132.91
			c16.86,0,30.58,13.72,30.58,30.58V225.6c0,16.86-13.72,30.58-30.58,30.58H55.29z"/>
		<path class="st90" d="M54.74,255.63c-16.86,0-30.58-13.72-30.58-30.58V54.74c0-16.86,13.72-30.58,30.58-30.58h132.91
			c16.86,0,30.58,13.72,30.58,30.58v170.31c0,16.86-13.72,30.58-30.58,30.58H54.74z"/>
		<path class="st91" d="M54.19,255.08c-16.86,0-30.58-13.72-30.58-30.58V54.19c0-16.86,13.72-30.58,30.58-30.58h132.91
			c16.86,0,30.58,13.72,30.58,30.58V224.5c0,16.86-13.72,30.58-30.58,30.58H54.19z"/>
		<path class="st92" d="M53.64,254.53c-16.86,0-30.58-13.72-30.58-30.58V53.64c0-16.86,13.72-30.58,30.58-30.58h132.91
			c16.86,0,30.58,13.72,30.58,30.58v170.31c0,16.86-13.72,30.58-30.58,30.58H53.64z"/>
		<path class="st93" d="M53.09,253.98c-16.86,0-30.58-13.72-30.58-30.58V53.09c0-16.86,13.72-30.58,30.58-30.58H186
			c16.86,0,30.58,13.72,30.58,30.58V223.4c0,16.86-13.72,30.58-30.58,30.58H53.09z"/>
		<path class="st94" d="M52.54,253.43c-16.86,0-30.58-13.72-30.58-30.58V52.54c0-16.86,13.72-30.58,30.58-30.58h132.91
			c16.86,0,30.58,13.72,30.58,30.58v170.31c0,16.86-13.72,30.58-30.58,30.58H52.54z"/>
		<path class="st95" d="M51.99,252.88c-16.86,0-30.58-13.72-30.58-30.58V51.99c0-16.86,13.72-30.58,30.58-30.58H184.9
			c16.86,0,30.58,13.72,30.58,30.58V222.3c0,16.86-13.72,30.58-30.58,30.58H51.99z"/>
		<path class="st96" d="M51.44,252.33c-16.86,0-30.58-13.72-30.58-30.58V51.44c0-16.86,13.72-30.58,30.58-30.58h132.91
			c16.86,0,30.58,13.72,30.58,30.58v170.31c0,16.86-13.72,30.58-30.58,30.58H51.44z"/>
		<path class="st97" d="M50.89,251.78c-16.86,0-30.58-13.72-30.58-30.58V50.89c0-16.86,13.72-30.58,30.58-30.58H183.8
			c16.86,0,30.58,13.72,30.58,30.58v170.31c0,16.86-13.72,30.58-30.58,30.58H50.89z"/>
		<path class="st98" d="M50.34,251.24c-16.86,0-30.58-13.72-30.58-30.58V50.34c0-16.86,13.72-30.58,30.58-30.58h132.91
			c16.86,0,30.58,13.72,30.58,30.58v170.31c0,16.86-13.72,30.58-30.58,30.58H50.34z"/>
		<path class="st99" d="M49.8,250.69c-16.86,0-30.58-13.72-30.58-30.58V49.79c0-16.86,13.72-30.58,30.58-30.58H182.7
			c16.86,0,30.58,13.72,30.58,30.58v170.31c0,16.86-13.72,30.58-30.58,30.58H49.8z"/>
		<path class="st100" d="M49.25,250.14c-16.86,0-30.58-13.72-30.58-30.58V49.25c0-16.86,13.72-30.58,30.58-30.58h132.91
			c16.86,0,30.58,13.72,30.58,30.58v170.31c0,16.86-13.72,30.58-30.58,30.58H49.25z"/>
		<path class="st101" d="M48.7,249.59c-16.86,0-30.58-13.72-30.58-30.58V48.7c0-16.86,13.72-30.58,30.58-30.58H181.6
			c16.86,0,30.58,13.72,30.58,30.58v170.31c0,16.86-13.72,30.58-30.58,30.58H48.7z"/>
		<path class="st102" d="M48.15,249.04c-16.86,0-30.58-13.72-30.58-30.58V48.15c0-16.86,13.72-30.58,30.58-30.58h132.91
			c16.86,0,30.58,13.72,30.58,30.58v170.31c0,16.86-13.72,30.58-30.58,30.58H48.15z"/>
		<path class="st103" d="M47.6,248.49c-16.86,0-30.58-13.72-30.58-30.58V47.6c0-16.86,13.72-30.58,30.58-30.58h132.91
			c16.86,0,30.58,13.72,30.58,30.58v170.31c0,16.86-13.72,30.58-30.58,30.58H47.6z"/>
		<path class="st104" d="M47.05,247.94c-16.86,0-30.58-13.72-30.58-30.58V47.05c0-16.86,13.72-30.58,30.58-30.58h132.91
			c16.86,0,30.58,13.72,30.58,30.58v170.31c0,16.86-13.72,30.58-30.58,30.58H47.05z"/>
		<path class="st105" d="M46.5,247.39c-16.86,0-30.58-13.72-30.58-30.58V46.5c0-16.86,13.72-30.58,30.58-30.58h132.91
			c16.86,0,30.58,13.72,30.58,30.58v170.31c0,16.86-13.72,30.58-30.58,30.58H46.5z"/>
		<path class="st106" d="M45.95,246.84c-16.86,0-30.58-13.72-30.58-30.58V45.95c0-16.86,13.72-30.58,30.58-30.58h132.91
			c16.86,0,30.58,13.72,30.58,30.58v170.31c0,16.86-13.72,30.58-30.58,30.58H45.95z"/>
		<path class="st107" d="M45.4,246.29c-16.86,0-30.58-13.72-30.58-30.58V45.4c0-16.86,13.72-30.58,30.58-30.58h132.91
			c16.86,0,30.58,13.72,30.58,30.58v170.31c0,16.86-13.72,30.58-30.58,30.58H45.4z"/>
		<path class="st108" d="M44.85,245.75c-16.86,0-30.58-13.72-30.58-30.58V44.85c0-16.86,13.72-30.58,30.58-30.58h132.91
			c16.86,0,30.58,13.72,30.58,30.58v170.31c0,16.86-13.72,30.58-30.58,30.58H44.85z"/>
		<path class="st109" d="M44.3,245.2c-16.86,0-30.58-13.72-30.58-30.58V44.3c0-16.86,13.72-30.58,30.58-30.58h132.91
			c16.86,0,30.58,13.72,30.58,30.58v170.31c0,16.86-13.72,30.58-30.58,30.58H44.3z"/>
		<path class="st110" d="M43.76,244.65c-16.86,0-30.58-13.72-30.58-30.58V43.76c0-16.86,13.72-30.58,30.58-30.58h132.91
			c16.86,0,30.58,13.72,30.58,30.58v170.31c0,16.86-13.72,30.58-30.58,30.58H43.76z"/>
		<path class="st111" d="M43.21,244.1c-16.86,0-30.58-13.72-30.58-30.58V43.21c0-16.86,13.72-30.58,30.58-30.58h132.91
			c16.86,0,30.58,13.72,30.58,30.58v170.31c0,16.86-13.72,30.58-30.58,30.58H43.21z"/>
		<path class="st112" d="M42.66,243.55c-16.86,0-30.58-13.72-30.58-30.58V42.66c0-16.86,13.72-30.58,30.58-30.58h132.91
			c16.86,0,30.58,13.72,30.58,30.58v170.31c0,16.86-13.72,30.58-30.58,30.58H42.66z"/>
		<path class="st113" d="M42.11,243c-16.86,0-30.58-13.72-30.58-30.58V42.11c0-16.86,13.72-30.58,30.58-30.58h132.91
			c16.86,0,30.58,13.72,30.58,30.58v170.31c0,16.86-13.72,30.58-30.58,30.58H42.11z"/>
		<path class="st114" d="M41.56,242.45c-16.86,0-30.58-13.72-30.58-30.58V41.56c0-16.86,13.72-30.58,30.58-30.58h132.91
			c16.86,0,30.58,13.72,30.58,30.58v170.31c0,16.86-13.72,30.58-30.58,30.58H41.56z"/>
		<path class="st115" d="M41.01,241.9c-16.86,0-30.58-13.72-30.58-30.58V41.01c0-16.86,13.72-30.58,30.58-30.58h132.91
			c16.86,0,30.58,13.72,30.58,30.58v170.31c0,16.86-13.72,30.58-30.58,30.58H41.01z"/>
		<path class="st116" d="M40.46,241.35c-16.86,0-30.58-13.72-30.58-30.58V40.46C9.88,23.6,23.6,9.88,40.46,9.88h132.91
			c16.86,0,30.58,13.72,30.58,30.58v170.31c0,16.86-13.72,30.58-30.58,30.58H40.46z"/>
		<path class="st117" d="M39.91,240.8c-16.86,0-30.58-13.72-30.58-30.58V39.91c0-16.86,13.72-30.58,30.58-30.58h132.91
			c16.86,0,30.58,13.72,30.58,30.58v170.31c0,16.86-13.72,30.58-30.58,30.58H39.91z"/>
		<path class="st118" d="M39.36,240.25c-16.86,0-30.58-13.72-30.58-30.58V39.36C8.79,22.5,22.5,8.79,39.36,8.79h132.91
			c16.86,0,30.58,13.72,30.58,30.58v170.31c0,16.86-13.72,30.58-30.58,30.58H39.36z"/>
		<path class="st119" d="M38.81,239.71c-16.86,0-30.58-13.72-30.58-30.58V38.81c0-16.86,13.72-30.58,30.58-30.58h132.91
			c16.86,0,30.58,13.72,30.58,30.58v170.31c0,16.86-13.72,30.58-30.58,30.58H38.81z"/>
		<path class="st120" d="M38.26,239.16c-16.86,0-30.58-13.72-30.58-30.58V38.26C7.69,21.4,21.4,7.69,38.26,7.69h132.91
			c16.86,0,30.58,13.72,30.58,30.58v170.31c0,16.86-13.72,30.58-30.58,30.58H38.26z"/>
		<path class="st121" d="M37.72,238.61c-16.86,0-30.58-13.72-30.58-30.58V37.72c0-16.86,13.72-30.58,30.58-30.58h132.91
			c16.86,0,30.58,13.72,30.58,30.58v170.31c0,16.86-13.72,30.58-30.58,30.58H37.72z"/>
		<path class="st122" d="M37.17,238.06c-16.86,0-30.58-13.72-30.58-30.58V37.17c0-16.86,13.72-30.58,30.58-30.58h132.91
			c16.86,0,30.58,13.72,30.58,30.58v170.31c0,16.86-13.72,30.58-30.58,30.58H37.17z"/>
		<path class="st123" d="M36.62,237.51c-16.86,0-30.58-13.72-30.58-30.58V36.62c0-16.86,13.72-30.58,30.58-30.58h132.91
			c16.86,0,30.58,13.72,30.58,30.58v170.31c0,16.86-13.72,30.58-30.58,30.58H36.62z"/>
		<path class="st124" d="M36.07,236.96c-16.86,0-30.58-13.72-30.58-30.58V36.07c0-16.86,13.72-30.58,30.58-30.58h132.91
			c16.86,0,30.58,13.72,30.58,30.58v170.31c0,16.86-13.72,30.58-30.58,30.58H36.07z"/>
		<path class="st125" d="M35.52,236.41c-16.86,0-30.58-13.72-30.58-30.58V35.52c0-16.86,13.72-30.58,30.58-30.58h132.91
			c16.86,0,30.58,13.72,30.58,30.58v170.31c0,16.86-13.72,30.58-30.58,30.58H35.52z"/>
		<path class="st126" d="M34.97,235.86c-16.86,0-30.58-13.72-30.58-30.58V34.97c0-16.86,13.72-30.58,30.58-30.58h132.91
			c16.86,0,30.58,13.72,30.58,30.58v170.31c0,16.86-13.72,30.58-30.58,30.58H34.97z"/>
		<path class="st127" d="M34.42,235.31c-16.86,0-30.58-13.72-30.58-30.58V34.42c0-16.86,13.72-30.58,30.58-30.58h132.91
			c16.86,0,30.58,13.72,30.58,30.58v170.31c0,16.86-13.72,30.58-30.58,30.58H34.42z"/>
		<path class="st128" d="M33.87,234.76c-16.86,0-30.58-13.72-30.58-30.58V33.87c0-16.86,13.72-30.58,30.58-30.58h132.91
			c16.86,0,30.58,13.72,30.58,30.58v170.31c0,16.86-13.72,30.58-30.58,30.58H33.87z"/>
		<path class="st129" d="M33.32,234.21c-16.86,0-30.58-13.72-30.58-30.58V33.32c0-16.86,13.72-30.58,30.58-30.58h132.91
			c16.86,0,30.58,13.72,30.58,30.58v170.31c0,16.86-13.72,30.58-30.58,30.58H33.32z"/>
		<path class="st130" d="M32.77,233.67c-16.86,0-30.58-13.72-30.58-30.58V32.77C2.2,15.91,15.91,2.2,32.77,2.2h132.91
			c16.86,0,30.58,13.72,30.58,30.58v170.31c0,16.86-13.72,30.58-30.58,30.58H32.77z"/>
		<path class="st131" d="M32.23,233.12c-16.86,0-30.58-13.72-30.58-30.58V32.22c0-16.86,13.72-30.58,30.58-30.58h132.91
			c16.86,0,30.58,13.72,30.58,30.58v170.31c0,16.86-13.72,30.58-30.58,30.58H32.23z"/>
		<path class="st132" d="M31.68,232.57c-16.86,0-30.58-13.72-30.58-30.58V31.68C1.1,14.82,14.82,1.1,31.68,1.1h132.91
			c16.86,0,30.58,13.72,30.58,30.58v170.31c0,16.86-13.72,30.58-30.58,30.58H31.68z"/>
		<path class="st133" d="M31.13,232.02c-16.86,0-30.58-13.72-30.58-30.58V31.13c0-16.86,13.72-30.58,30.58-30.58h132.91
			c16.86,0,30.58,13.72,30.58,30.58v170.31c0,16.86-13.72,30.58-30.58,30.58H31.13z"/>
		<path class="st134" d="M30.58,231.47C13.72,231.47,0,217.75,0,200.89V30.58C0,13.72,13.72,0,30.58,0h132.91
			c16.86,0,30.58,13.72,30.58,30.58v170.31c0,16.86-13.72,30.58-30.58,30.58H30.58z"/>
	</g>
	<path class="st135" d="M191.66,30.58v170.3c0,15.57-12.62,28.18-28.17,28.18H30.58c-15.57,0-28.18-12.62-28.18-28.18V30.58
		C2.4,15.02,15.01,2.4,30.58,2.4h132.91C179.05,2.4,191.66,15.02,191.66,30.58z"/>
</g>
</svg>
